<?xml version="1.0" encoding="utf-8"?>
<!-- Generator: Adobe Illustrator 25.3.0, SVG Export Plug-In . SVG Version: 6.00 Build 0)  -->
<svg version="1.1" xmlns="http://www.w3.org/2000/svg" xmlns:xlink="http://www.w3.org/1999/xlink" x="0px" y="0px"
	 viewBox="0 0 500 500" style="enable-background:new 0 0 500 500;" xml:space="preserve">
<style type="text/css">
	.st0{fill:none;}
	.st1{fill:#F5F5F5;}
	.st2{fill:#E0E0E0;}
	.st3{fill:#EBEBEB;}
	.st4{display:none;}
	.st5{display:inline;fill:#F5F5F5;}
	.st6{fill:#FFBE9D;}
	.st7{fill:#EB996E;}
	.st8{fill:#E8505B;}
	.st9{fill:#FAFAFA;}
	.st10{fill:#263238;}
	.st11{fill:#FFFFFF;}
	.st12{opacity:0.3;}
</style>
<g id="Background_Complete">
	<g>
		<g>
			<g>
				<polygon class="st0" points="256.31,232.97 256.31,232.98 256.34,232.98 				"/>
			</g>
		</g>
		<g>
			<g>
				<polygon class="st0" points="256.23,232.98 256.3,232.98 256.25,232.95 				"/>
			</g>
		</g>
		<g>
			<g>
				<polygon class="st0" points="256.14,232.92 256.1,232.98 256.22,232.98 				"/>
			</g>
		</g>
		<g>
			<g>
				<polygon class="st0" points="256.04,232.91 256.06,232.9 256.03,232.89 				"/>
			</g>
		</g>
		<g>
			<g>
				<polygon class="st0" points="256.02,232.75 256.02,232.76 256.04,232.77 				"/>
			</g>
		</g>
		<g>
			<g>
				<polygon class="st0" points="256.29,232.9 256.27,232.92 256.29,232.94 				"/>
			</g>
		</g>
		<g>
			<g>
				<polygon class="st0" points="255.99,232.94 255.98,232.87 255.65,232.78 255.95,232.97 				"/>
			</g>
		</g>
		<g>
			<g>
				<polygon class="st0" points="256,232.88 255.99,232.94 256.04,232.91 				"/>
			</g>
		</g>
		<g>
			<g>
				<polygon class="st0" points="256.26,232.88 256.22,232.89 256.25,232.91 				"/>
			</g>
		</g>
		<g>
			<g>
				<polygon class="st0" points="256.23,232.95 256.21,232.94 256.22,232.97 				"/>
			</g>
		</g>
		<g>
			<g>
				<path class="st1" d="M228.12,39.02l14,97.43c0.13-0.02,0.26-0.04,0.4-0.06l13.62,95.49l13.5-95.51
					c0.07,0.01,0.14,0.02,0.21,0.03l13.45-95.86c-10.85-1.75-21.97-2.67-33.31-2.67C242.61,37.88,235.31,38.27,228.12,39.02z"/>
			</g>
		</g>
		<g>
			<g>
				<path class="st1" d="M382.78,85.86c-14.09-11.73-29.76-21.62-46.64-29.33l-39.78,87.64c0.07,0.03,0.14,0.07,0.21,0.1
					l-40.22,88.4L382.78,85.86z"/>
			</g>
		</g>
		<g>
			<g>
				<path class="st1" d="M162.83,205.6C162.83,205.6,162.83,205.6,162.83,205.6l92.59,27.11h-0.36l0.89,0.26l-0.01,0.01l0.02-0.01
					l0,0l0.04-0.03l0,0.01l0.06-0.02l-0.01-0.02l0.01,0.02l0.02-0.01l-0.01,0.02l0.02,0.03l0.05-0.06l0.07,0.06l-0.12,0l0.06,0.05
					l0.05-0.04l-0.01,0.03l0.04-0.01l0-0.01l0,0.01l0.06-0.02l0,0.02l0.04-0.03l0.02,0.01l-0.06,0.04l0.38,0.16l-0.31-0.2
					l93.13,27.26c-0.02,0.07-0.04,0.13-0.06,0.2l103.34,30.38c3.23-14.56,4.95-29.69,4.95-45.22c0-4.34-0.15-8.63-0.41-12.9H353.41
					c0,0.06,0,0.11,0,0.17l-97.04,0.1h-0.03l0.01,0l-0.04-0.03l0.01-0.09l0.43-0.13l-0.35,0.23l0.86-0.25h-0.42L446,176.68
					c-6.31-17.94-15-34.74-25.71-50.04l-163.5,106.08h-0.33l0.14-0.16l-0.25,0.16h0l0-0.02l-0.02,0.02l0.09-0.52l-0.18,0.39
					l0.02,0.13l-0.12,0.09l-0.04-0.09h-0.08l0.02-0.13l-0.15-0.34l0.06,0.43l0.03,0.04h-0.03l0,0.01l-0.2-0.13l0.1,0.11h-0.32
					L83.23,121.75c-11.78,15.84-21.37,33.41-28.29,52.27L162.83,205.6z M256.31,232.97l0.03,0.01L256.31,232.97L256.31,232.97z
					 M256.23,232.98l0.02-0.02l0.05,0.03L256.23,232.98z M256.29,232.9l0,0.03l-0.02-0.01L256.29,232.9z M256.26,232.88l-0.01,0.03
					l-0.03-0.02L256.26,232.88z M256.23,232.95l-0.01,0.02l-0.01-0.03L256.23,232.95z M256.04,232.91l-0.01-0.02l0.03,0.01
					L256.04,232.91z M256.02,232.75l0.02,0.02l-0.02-0.01L256.02,232.75z M256,232.88l0.03,0.03l-0.04,0.03L256,232.88z
					 M255.98,232.87l0.01,0.07l-0.05,0.03l-0.3-0.19L255.98,232.87z"/>
			</g>
		</g>
		<g>
			<g>
				<path class="st1" d="M192.36,159.32c0.01,0,0.01-0.01,0.01-0.01l63.53,73.31l-40.3-88.3c0.01-0.01,0.02-0.01,0.03-0.01
					l-42.07-91.92c-17.88,7.08-34.53,16.57-49.58,28.07L192.36,159.32z"/>
			</g>
		</g>
		<g>
			<g>
				<path class="st1" d="M337.99,285.68c-0.02,0.03-0.04,0.06-0.05,0.09l-81.39-52.41l63.47,73.21c-0.05,0.04-0.1,0.09-0.16,0.13
					l75.51,87.3c14.32-14.03,26.61-30.11,36.41-47.77L337.99,285.68z"/>
			</g>
		</g>
		<g>
			<g>
				<polygon class="st1" points="256.28,233.18 256.26,233.17 256.28,233.19 				"/>
			</g>
		</g>
		<g>
			<g>
				<polygon class="st1" points="256.05,233 256.04,233.03 256,233 256.01,233.08 256.02,233.07 256.02,233.08 256.08,233.06 
					256.05,233.03 256.07,233.01 256.09,233.01 256.08,233 256.1,232.98 256,232.98 				"/>
			</g>
		</g>
		<g>
			<g>
				<polygon class="st1" points="255.97,233.09 255.98,232.99 255.96,232.98 255.58,233.2 				"/>
			</g>
		</g>
		<g>
			<g>
				<path class="st1" d="M255.74,233.39l-81.18,52.67c-0.06-0.1-0.13-0.2-0.19-0.3L71.68,352.22
					c10.82,18.06,24.31,34.34,39.92,48.29l93.19-107.95L255.74,233.39z"/>
			</g>
		</g>
		<g>
			<g>
				<path class="st1" d="M162.88,260.54l93.04-27.56l-213.28,0.23c-0.24,4.1-0.38,8.24-0.38,12.4c0,16.82,2.01,33.17,5.79,48.83
					l114.83-33.89C162.89,260.55,162.89,260.55,162.88,260.54z"/>
			</g>
		</g>
		<g>
			<g>
				<path class="st1" d="M255.88,233.72l-91.55,201.2c18.89,8.56,39.3,14.37,60.71,16.93L255.88,233.72z"/>
			</g>
		</g>
		<g>
			<g>
				<polygon class="st1" points="256.3,233.03 256.28,233.04 256.3,233.07 				"/>
			</g>
		</g>
		<g>
			<g>
				<path class="st1" d="M256.4,233.7l30.86,216.31c20.81-3.77,40.53-10.64,58.69-20.11L256.4,233.7z"/>
			</g>
		</g>
		<g>
			<g>
				<polygon class="st1" points="256.05,233.35 256.16,234.08 256.25,233.37 256.15,233.14 				"/>
			</g>
		</g>
		<g>
			<g>
				<polygon class="st1" points="256.26,233.05 256.25,233.06 256.27,233.06 				"/>
			</g>
		</g>
	</g>
	<g>
		<g>
			<g>
				<g>
					<g>
						<path class="st2" d="M188.56,446.75c0,0-0.24-0.07-0.69-0.24c-0.47-0.17-1.14-0.42-2.01-0.74c-0.89-0.33-1.98-0.74-3.26-1.23
							c-0.64-0.24-1.34-0.51-2.08-0.79c-0.74-0.29-1.51-0.64-2.33-0.98c-1.65-0.7-3.47-1.49-5.47-2.34c-1.98-0.89-4.1-1.95-6.4-3.04
							c-2.32-1.05-4.68-2.39-7.24-3.73c-2.57-1.3-5.18-2.89-7.95-4.49c-2.8-1.56-5.56-3.46-8.52-5.31c-1.49-0.91-2.92-1.98-4.42-3
							c-1.48-1.04-3.02-2.08-4.54-3.19c-1.5-1.14-3.02-2.29-4.57-3.47c-0.77-0.59-1.56-1.17-2.33-1.79
							c-0.76-0.63-1.53-1.26-2.31-1.9c-1.54-1.28-3.13-2.55-4.7-3.89c-1.54-1.37-3.1-2.76-4.68-4.17c-1.61-1.38-3.11-2.91-4.68-4.41
							c-1.55-1.51-3.16-3-4.67-4.63c-1.53-1.6-3.08-3.22-4.64-4.86c-1.49-1.7-3-3.41-4.52-5.14c-5.99-7-11.78-14.6-17.15-22.76
							c-5.31-8.21-9.93-16.57-13.92-24.87c-0.97-2.09-1.93-4.16-2.88-6.21c-0.87-2.09-1.73-4.16-2.58-6.2
							c-0.89-2.03-1.59-4.11-2.36-6.14c-0.74-2.04-1.53-4.03-2.15-6.06c-0.65-2.01-1.3-4-1.93-5.96c-0.6-1.97-1.12-3.94-1.67-5.87
							c-0.27-0.97-0.54-1.92-0.81-2.87c-0.25-0.95-0.46-1.91-0.69-2.86c-0.45-1.89-0.89-3.75-1.33-5.58
							c-0.4-1.84-0.73-3.66-1.09-5.44c-0.34-1.78-0.73-3.52-0.97-5.26c-0.5-3.46-1.13-6.75-1.43-9.94c-0.35-3.18-0.75-6.2-0.91-9.08
							c-0.19-2.88-0.46-5.58-0.5-8.13c-0.07-2.54-0.18-4.9-0.2-7.08c0.02-2.18,0.04-4.16,0.06-5.95c0.01-0.89,0.01-1.74,0.04-2.53
							c0.04-0.79,0.08-1.53,0.12-2.22c0.08-1.37,0.14-2.53,0.19-3.48c0.06-0.93,0.1-1.64,0.13-2.14c0.03-0.48,0.06-0.73,0.06-0.73
							s0.01,0.25-0.01,0.73c-0.02,0.5-0.04,1.21-0.08,2.14c-0.04,0.95-0.08,2.11-0.14,3.48c-0.03,0.69-0.06,1.43-0.09,2.22
							c-0.02,0.79-0.01,1.64-0.01,2.53c0,1.79-0.01,3.78-0.01,5.95c0.03,2.17,0.16,4.53,0.24,7.07c0.04,2.54,0.33,5.24,0.54,8.11
							c0.17,2.87,0.58,5.89,0.95,9.06c0.31,3.18,0.95,6.47,1.46,9.92c0.24,1.73,0.64,3.46,0.98,5.24c0.36,1.78,0.7,3.59,1.1,5.43
							c0.44,1.83,0.89,3.68,1.34,5.57c0.23,0.94,0.44,1.9,0.7,2.85c0.27,0.95,0.54,1.9,0.81,2.87c0.55,1.92,1.08,3.88,1.68,5.85
							c0.64,1.96,1.28,3.94,1.94,5.95c0.62,2.02,1.41,4.01,2.15,6.04c0.76,2.02,1.47,4.09,2.36,6.12c0.85,2.04,1.71,4.1,2.58,6.18
							c0.95,2.05,1.91,4.11,2.88,6.2c3.99,8.28,8.6,16.62,13.9,24.81c5.36,8.14,11.13,15.72,17.1,22.71
							c1.52,1.73,3.02,3.44,4.51,5.13c1.56,1.63,3.1,3.25,4.62,4.85c1.5,1.63,3.11,3.11,4.65,4.62c1.56,1.5,3.06,3.02,4.66,4.4
							c1.57,1.41,3.13,2.8,4.66,4.17c1.56,1.34,3.14,2.61,4.68,3.89c0.77,0.64,1.54,1.27,2.3,1.9c0.77,0.62,1.56,1.2,2.33,1.79
							c1.54,1.18,3.06,2.33,4.56,3.47c1.52,1.11,3.04,2.15,4.52,3.19c1.49,1.03,2.92,2.09,4.4,3.01c2.95,1.86,5.7,3.77,8.49,5.33
							c2.76,1.61,5.35,3.2,7.91,4.52c2.55,1.34,4.9,2.69,7.21,3.76c2.29,1.1,4.4,2.16,6.37,3.07c1.99,0.87,3.81,1.67,5.45,2.38
							c0.82,0.35,1.59,0.71,2.32,1.01c0.74,0.29,1.43,0.56,2.07,0.81c1.28,0.5,2.36,0.93,3.24,1.27c0.86,0.34,1.53,0.61,1.99,0.79
							C188.34,446.65,188.56,446.75,188.56,446.75z"/>
					</g>
				</g>
			</g>
		</g>
		<g>
			<g>
				<g>
					<g>
						<g>
							<path class="st2" d="M135.99,421.87c6.2-8.96,5.41-21.46,0.27-31.07c-5.14-9.61-13.96-16.73-23.25-22.44
								c-3.56,9.77-3.59,22.25,1.03,31.56C118.68,409.23,126.93,415.49,135.99,421.87"/>
						</g>
					</g>
				</g>
				<g>
					<g>
						<g>
							<path class="st3" d="M136.03,421.86c-1.95-10.72-11.35-19.01-21.78-22.16c-10.43-3.16-21.7-1.96-32.31,0.57
								c4.39,9.43,13.19,18.27,23.05,21.59S125.11,423.76,136.03,421.86"/>
						</g>
					</g>
				</g>
			</g>
			<g>
				<g>
					<g>
						<g>
							<path class="st2" d="M90.01,377.05c6.53-6.64,7.69-17.29,4.75-26.13c-2.93-8.84-9.32-16.12-16.31-22.28
								c-4.42,7.71-6.27,18.22-3.73,26.73C77.27,363.89,83.31,370.37,90.01,377.05"/>
						</g>
					</g>
				</g>
				<g>
					<g>
						<g>
							<path class="st3" d="M90.05,377.05c-0.08-9.32-6.79-17.66-15.12-21.84c-8.33-4.18-17.99-4.81-27.29-4.22
								c2.32,8.58,8.45,17.31,16.27,21.54S80.58,377.07,90.05,377.05"/>
						</g>
					</g>
				</g>
			</g>
			<g>
				<g>
					<g>
						<g>
							<path class="st2" d="M60.15,326.69c6.8-3.31,10.57-11.13,10.73-18.69c0.16-7.56-2.75-14.86-6.42-21.47
								c-5.48,4.69-9.74,12.23-10.11,19.43C53.98,313.16,56.84,319.75,60.15,326.69"/>
						</g>
					</g>
				</g>
				<g>
					<g>
						<g>
							<path class="st3" d="M60.18,326.69c2.47-7.14-0.4-15.35-5.63-20.8c-5.23-5.46-12.45-8.56-19.72-10.64
								c-0.55,7.19,1.76,15.53,6.59,20.89C46.25,321.49,52.93,324.13,60.18,326.69"/>
						</g>
					</g>
				</g>
			</g>
			<g>
				<g>
					<g>
						<g>
							<path class="st2" d="M46.26,275.36c6.5-1.6,11.23-7.67,12.78-14.18c1.55-6.51,0.39-13.38-1.56-19.79
								c-5.62,3.04-10.71,8.77-12.37,14.94C43.44,262.5,44.68,268.74,46.26,275.36"/>
						</g>
					</g>
				</g>
				<g>
					<g>
						<g>
							<path class="st3" d="M46.28,275.37c3.47-5.73,2.52-13.36-1-19.06c-3.51-5.7-9.19-9.74-15.1-12.89
								c-1.82,6.12-1.37,13.78,1.82,19.32C35.19,268.27,40.48,271.81,46.28,275.37"/>
						</g>
					</g>
				</g>
			</g>
			<g>
				<g>
					<g>
						<path class="st3" d="M43.77,234.91c0,0-14.71-21.09,7.83-32.71C51.61,202.2,64.97,221.78,43.77,234.91z"/>
					</g>
				</g>
			</g>
		</g>
	</g>
	<g>
		<g>
			<g>
				<g>
					<g>
						<path class="st2" d="M315.98,445.26c0,0,0.22-0.11,0.67-0.29c0.46-0.19,1.12-0.45,1.99-0.8c0.88-0.35,1.96-0.78,3.23-1.29
							c0.64-0.25,1.33-0.53,2.06-0.82c0.73-0.3,1.5-0.66,2.32-1.02c1.64-0.72,3.45-1.53,5.44-2.41c1.97-0.92,4.08-1.99,6.36-3.1
							c2.3-1.08,4.65-2.44,7.19-3.79c2.56-1.33,5.14-2.93,7.89-4.56c2.78-1.58,5.52-3.5,8.46-5.37c1.48-0.92,2.9-2,4.39-3.03
							c1.47-1.05,3-2.1,4.51-3.22c1.49-1.15,3-2.31,4.54-3.49c0.77-0.6,1.55-1.18,2.32-1.8c0.76-0.63,1.52-1.27,2.29-1.91
							c1.53-1.29,3.11-2.57,4.66-3.92c1.53-1.38,3.07-2.78,4.64-4.19c1.59-1.39,3.08-2.92,4.64-4.43c1.54-1.52,3.14-3.01,4.63-4.65
							c1.52-1.61,3.05-3.23,4.6-4.87c1.48-1.7,2.98-3.42,4.48-5.15c5.93-7.01,11.67-14.62,16.99-22.79
							c5.25-8.21,9.83-16.58,13.77-24.88c0.96-2.09,1.91-4.16,2.85-6.21c0.86-2.09,1.71-4.15,2.55-6.2
							c0.88-2.03,1.58-4.11,2.33-6.13c0.73-2.04,1.52-4.03,2.12-6.05c0.64-2.01,1.28-4,1.91-5.96c0.59-1.97,1.1-3.94,1.65-5.86
							c0.27-0.96,0.53-1.92,0.8-2.87c0.25-0.95,0.46-1.91,0.68-2.85c0.44-1.89,0.88-3.75,1.31-5.58c0.39-1.84,0.72-3.65,1.07-5.43
							c0.33-1.78,0.72-3.52,0.96-5.25c0.5-3.45,1.12-6.74,1.41-9.93c0.35-3.18,0.75-6.19,0.9-9.07c0.19-2.87,0.46-5.57,0.5-8.11
							c0.07-2.54,0.18-4.9,0.21-7.07c-0.02-2.17-0.03-4.16-0.04-5.95c-0.01-0.89,0-1.74-0.03-2.53c-0.04-0.79-0.07-1.53-0.1-2.22
							c-0.06-1.37-0.11-2.53-0.16-3.48c-0.04-0.93-0.07-1.64-0.09-2.14c-0.02-0.48-0.01-0.73-0.01-0.73s0.03,0.25,0.07,0.73
							c0.03,0.5,0.08,1.21,0.14,2.14c0.06,0.95,0.13,2.11,0.21,3.48c0.04,0.69,0.08,1.43,0.13,2.22c0.03,0.79,0.03,1.64,0.05,2.53
							c0.03,1.79,0.06,3.78,0.09,5.95c-0.01,2.18-0.11,4.54-0.16,7.08c-0.02,2.54-0.28,5.25-0.46,8.13
							c-0.14,2.88-0.53,5.91-0.87,9.09c-0.28,3.19-0.89,6.49-1.38,9.95c-0.23,1.73-0.61,3.47-0.94,5.26
							c-0.35,1.78-0.67,3.6-1.06,5.44c-0.43,1.83-0.86,3.7-1.3,5.59c-0.23,0.95-0.43,1.9-0.68,2.86c-0.26,0.95-0.53,1.91-0.79,2.88
							c-0.54,1.93-1.05,3.9-1.64,5.88c-0.63,1.96-1.26,3.96-1.9,5.97c-0.61,2.03-1.39,4.02-2.12,6.07
							c-0.75,2.03-1.45,4.11-2.33,6.15c-0.84,2.05-1.69,4.12-2.55,6.21c-0.94,2.06-1.89,4.13-2.85,6.23
							c-3.95,8.32-8.53,16.71-13.8,24.94c-5.33,8.19-11.09,15.81-17.04,22.84c-1.51,1.74-3.01,3.46-4.5,5.16
							c-1.55,1.64-3.09,3.27-4.61,4.88c-1.49,1.64-3.1,3.13-4.64,4.65c-1.56,1.5-3.06,3.04-4.65,4.43
							c-1.57,1.42-3.12,2.81-4.66,4.19c-1.56,1.35-3.14,2.63-4.68,3.92c-0.77,0.64-1.54,1.28-2.3,1.91c-0.77,0.62-1.56,1.2-2.33,1.8
							c-1.54,1.18-3.06,2.35-4.56,3.49c-1.52,1.11-3.04,2.16-4.52,3.21c-1.49,1.03-2.92,2.1-4.4,3.03c-2.95,1.87-5.71,3.78-8.5,5.36
							c-2.76,1.62-5.36,3.21-7.92,4.53c-2.55,1.35-4.91,2.7-7.22,3.76c-2.29,1.1-4.41,2.16-6.39,3.07c-2,0.87-3.82,1.66-5.46,2.37
							c-0.82,0.35-1.59,0.7-2.33,1c-0.74,0.28-1.43,0.55-2.08,0.8c-1.28,0.49-2.37,0.91-3.26,1.24c-0.87,0.33-1.54,0.58-2.01,0.75
							C316.22,445.19,315.98,445.26,315.98,445.26z"/>
					</g>
				</g>
			</g>
		</g>
		<g>
			<g>
				<g>
					<g>
						<g>
							<path class="st2" d="M368.43,420.11c-6.25-8.93-5.52-21.44-0.42-31.07c5.1-9.63,13.88-16.8,23.14-22.55
								c3.61,9.75,3.7,22.23-0.88,31.57C385.68,407.39,377.47,413.7,368.43,420.11"/>
						</g>
					</g>
				</g>
				<g>
					<g>
						<g>
							<path class="st3" d="M368.39,420.11c1.9-10.73,11.26-19.06,21.67-22.27c10.42-3.21,21.69-2.06,32.31,0.41
								c-4.34,9.45-13.1,18.34-22.94,21.7C389.59,423.31,379.32,421.96,368.39,420.11"/>
						</g>
					</g>
				</g>
			</g>
			<g>
				<g>
					<g>
						<g>
							<path class="st2" d="M414.19,375.08c-6.56-6.61-7.77-17.25-4.88-26.11c2.89-8.86,9.24-16.17,16.2-22.36
								c4.46,7.69,6.36,18.19,3.86,26.72C426.86,361.85,420.86,368.36,414.19,375.08"/>
						</g>
					</g>
				</g>
				<g>
					<g>
						<g>
							<path class="st3" d="M414.15,375.08c0.03-9.32,6.7-17.69,15.01-21.91c8.3-4.22,17.97-4.9,27.27-4.36
								c-2.28,8.59-8.36,17.35-16.16,21.62C432.47,374.69,423.62,375.04,414.15,375.08"/>
						</g>
					</g>
				</g>
			</g>
			<g>
				<g>
					<g>
						<g>
							<path class="st2" d="M443.8,324.56c-6.81-3.27-10.63-11.08-10.82-18.64c-0.2-7.56,2.68-14.87,6.31-21.5
								c5.5,4.67,9.8,12.18,10.2,19.38C449.9,311.01,447.08,317.61,443.8,324.56"/>
						</g>
					</g>
				</g>
				<g>
					<g>
						<g>
							<path class="st3" d="M443.78,324.57c-2.5-7.13,0.32-15.35,5.52-20.83c5.2-5.48,12.41-8.62,19.67-10.74
								c0.59,7.19-1.68,15.54-6.49,20.92C457.68,319.3,451.01,321.97,443.78,324.57"/>
						</g>
					</g>
				</g>
			</g>
			<g>
				<g>
					<g>
						<g>
							<path class="st2" d="M457.44,273.17c-6.51-1.56-11.27-7.62-12.85-14.12c-1.58-6.51-0.45-13.38,1.46-19.8
								c5.63,3.02,10.75,8.72,12.45,14.88C460.2,260.29,458.99,266.54,457.44,273.17"/>
						</g>
					</g>
				</g>
				<g>
					<g>
						<g>
							<path class="st3" d="M457.42,273.18c-3.5-5.71-2.58-13.35,0.9-19.07c3.48-5.72,9.14-9.78,15.03-12.96
								c1.85,6.12,1.44,13.77-1.72,19.32C468.48,266.03,463.2,269.59,457.42,273.18"/>
						</g>
					</g>
				</g>
			</g>
			<g>
				<g>
					<g>
						<path class="st3" d="M459.73,232.71c0,0,14.6-21.17-8-32.67C451.74,200.04,438.46,219.68,459.73,232.71z"/>
					</g>
				</g>
			</g>
		</g>
	</g>
</g>
<g id="Background_Simple" class="st4">
	<path class="st5" d="M438.83,149.03l-2.43-3.95c-20.46-33.29-57.44-53.35-96.44-50.92c-5.01,0.31-10,0.98-14.93,2.02
		c-35.45,7.49-66.3,33.97-79.09,67.87c-7.52,19.94-9.62,42.9-23.89,58.73c-18.57,20.6-50.1,21.25-77.83,20.39
		c-27.72-0.85-59.28-0.13-77.76,20.56c-11.58,12.95-15.25,31.37-14.32,48.72c2.47,45.92,34.88,86.98,76.09,107.39
		c41.21,20.41,89.73,22.24,134.84,13.26c63.19-12.58,123.27-47.12,159.39-100.47C458.59,279.29,467.73,206.61,438.83,149.03z"/>
</g>
<g id="Character">
	<g>
		<g>
			<g>
				<g>
					<g>
						<g>
							<path class="st6" d="M208.39,228.61l-25.38-37.56l9.21-89.64l0.75,0.05c3.85-0.05,13.58-8.96,15.04-11.98
								c1.46-3.02-1.66-25.63-2.27-25.45c-6.18,1.8-5.45,8.85-5.45,8.85l-0.72-5.99c-1.83-8.75-8.2-4.81-8.2-4.81
								c-2.86-5.53-8.6-1.17-8.6-1.17c-1.59-4.69-5.98-0.56-5.98-0.56s-0.02-1.5-4.76-3.36c-2.61-1.03-5.28,2.56-7.16,5.98
								c-1.72,3.15-2.47,6.74-2.28,10.32l-2.47,26.06l-20.8,105.79l55.97,79.03l36.39-36.83L208.39,228.61z"/>
						</g>
						<g>
							<g>
								<g>
									<g>
										<path class="st7" d="M185.98,91.6c-0.08-0.06,0.76-1.41,2.62-3.15c1.85-1.73,4.79-3.82,8.51-5.07
											c1.32-0.45,2.64-0.77,3.87-0.98l-0.35,0.42c-0.02-2.86-0.38-5.31-0.46-7.1c-0.07-1.78,0.02-2.83,0.11-2.83
											c0.11,0,0.2,1.04,0.42,2.79c0.21,1.73,0.69,4.21,0.77,7.13l0.01,0.36l-0.36,0.07c-1.18,0.22-2.45,0.54-3.73,0.98
											c-3.58,1.2-6.47,3.13-8.38,4.71C187.09,90.49,186.09,91.69,185.98,91.6z"/>
									</g>
								</g>
							</g>
						</g>
						<g>
							<g>
								<g>
									<g>
										<path class="st7" d="M170.62,66.39c0.05-0.02,0.31,0.45,0.63,1.37c0.26,0.89,0.82,2.35,0.16,4.14
											c-0.33,0.92-1.29,1.5-1.48,2.29c-0.24,0.82,0.1,1.85,0.78,2.58c1.35,1.5,4.42,1.52,5.91-0.33c0.74-0.92,1-2.15,1.1-3.33
											c0.09-1.19,0.09-2.39,0.08-3.5c-0.03-2.25-0.22-4.26-0.43-5.95c-0.19-1.69-0.53-3.01-1.01-3.79
											c-0.48-0.79-0.97-1.05-0.92-1.12c0.01-0.04,0.59,0.12,1.21,0.92c0.63,0.79,1.08,2.2,1.35,3.89
											c0.3,1.69,0.55,3.74,0.63,6.02c0.03,1.14,0.06,2.33-0.03,3.6c-0.1,1.25-0.37,2.65-1.27,3.8c-1.9,2.3-5.47,2.23-7.18,0.34
											c-0.83-0.93-1.24-2.2-0.89-3.34c0.18-0.57,0.57-1.01,0.88-1.33c0.32-0.33,0.56-0.64,0.73-1c0.64-1.46,0.25-2.91,0.08-3.8
											C170.7,66.92,170.55,66.41,170.62,66.39z"/>
									</g>
								</g>
							</g>
						</g>
						<g>
							<g>
								<g>
									<g>
										<path class="st7" d="M176.61,77c0.08-0.02,0.16,0.38,0.59,0.9c0.41,0.52,1.25,1.13,2.43,1.27
											c1.16,0.17,2.57-0.41,3.6-1.61c1.05-1.18,1.61-2.91,1.77-4.78c0.41-3.81-0.46-7.19-1.33-9.53
											c-0.87-2.35-1.76-3.65-1.64-3.73c0.08-0.07,1.17,1.13,2.22,3.49c1.05,2.31,2.06,5.9,1.63,9.85
											c-0.16,1.96-0.8,3.92-2.04,5.23c-1.19,1.33-2.92,1.97-4.29,1.68c-1.36-0.25-2.25-1.04-2.62-1.68
											C176.53,77.44,176.57,77,176.61,77z"/>
									</g>
								</g>
							</g>
						</g>
						<g>
							<g>
								<g>
									<g>
										<path class="st7" d="M184.12,77.49c0.07-0.03,0.24,0.28,0.69,0.7c0.44,0.41,1.23,0.89,2.3,1.03
											c1.07,0.15,2.38-0.09,3.47-1.02c1.09-0.89,1.91-2.34,2.23-3.96c0.59-3.31-0.52-6.43-0.9-8.67
											c-0.46-2.25-0.69-3.65-0.57-3.68c0.12-0.03,0.56,1.32,1.17,3.54c0.3,1.11,0.68,2.41,0.99,3.92
											c0.3,1.5,0.52,3.24,0.16,5.06c-0.36,1.8-1.29,3.42-2.58,4.42c-1.28,1.04-2.9,1.26-4.07,1c-1.2-0.24-2.04-0.87-2.45-1.4
											C184.15,77.88,184.08,77.5,184.12,77.49z"/>
									</g>
								</g>
							</g>
						</g>
						<g>
							<g>
								<g>
									<g>
										<path class="st7" d="M192.85,76.72c0.07-0.01,0.15,0.38,0.34,1.06c0.2,0.66,0.5,1.66,1.26,2.6
											c0.7,0.92,2.14,1.7,3.59,1.33c1.42-0.39,2.33-2.19,2.2-4.01c-0.03-3.85-0.53-7.33-0.99-9.81
											c-0.46-2.49-0.88-4.01-0.75-4.05c0.1-0.04,0.74,1.43,1.36,3.92c0.62,2.49,1.22,6,1.26,9.94c0.14,1.99-0.89,4.29-2.87,4.8
											c-1.91,0.42-3.54-0.64-4.29-1.74c-0.78-1.12-0.99-2.19-1.1-2.9C192.76,77.13,192.8,76.73,192.85,76.72z"/>
									</g>
								</g>
							</g>
						</g>
					</g>
					<g>
						<g>
							<path class="st7" d="M170.05,205.15c-0.06-0.03,0.45-1.03,1.43-2.54c0.97-1.51,2.44-3.53,4.26-5.59
								c1.82-2.06,3.65-3.76,5.03-4.91c1.38-1.15,2.31-1.78,2.34-1.73c0.05,0.06-0.79,0.79-2.1,2c-1.31,1.21-3.08,2.94-4.88,4.98
								c-1.8,2.04-3.3,4.01-4.35,5.46C170.74,204.27,170.12,205.19,170.05,205.15z"/>
						</g>
					</g>
				</g>
				<g>
					<g>
						<polygon class="st8" points="259.74,266.93 207.35,220.47 164.39,255.43 225.29,330.5 						"/>
					</g>
					<g>
						<g>
							<path class="st9" d="M173.22,264.46c-0.01-0.01,0.11-0.17,0.34-0.45c0.28-0.33,0.63-0.74,1.06-1.24
								c0.92-1.08,2.34-2.56,4.12-4.35c3.6-3.57,8.84-8.22,14.96-12.93c6.12-4.72,11.94-8.63,16.29-11.23
								c2.17-1.31,3.98-2.27,5.24-2.91c0.64-0.31,1.14-0.53,1.48-0.68c0.34-0.15,0.52-0.22,0.53-0.2c0.01,0.02-0.16,0.12-0.49,0.3
								c-0.38,0.2-0.85,0.45-1.44,0.76c-1.23,0.69-3.01,1.7-5.15,3.05c-4.29,2.67-10.05,6.62-16.16,11.33
								c-6.11,4.7-11.37,9.3-15.02,12.79c-1.81,1.76-3.27,3.19-4.23,4.23c-0.46,0.47-0.83,0.86-1.13,1.17
								C173.38,264.34,173.23,264.47,173.22,264.46z"/>
						</g>
					</g>
					<g>
						<g>
							<path class="st9" d="M221.63,233.54c0.01,0.02-0.16,0.13-0.49,0.34c-0.38,0.23-0.86,0.52-1.44,0.88
								c-1.26,0.75-3.08,1.86-5.3,3.26c-4.44,2.8-10.46,6.86-16.78,11.79c-6.32,4.94-11.72,9.79-15.51,13.42
								c-1.9,1.81-3.42,3.3-4.45,4.35c-0.49,0.48-0.89,0.88-1.21,1.19c-0.28,0.27-0.43,0.4-0.45,0.39
								c-0.01-0.01,0.12-0.17,0.37-0.46c0.3-0.33,0.67-0.74,1.14-1.26c0.99-1.09,2.47-2.62,4.34-4.47
								c3.74-3.71,9.12-8.62,15.45-13.57c6.34-4.94,12.41-8.97,16.91-11.69c2.25-1.36,4.09-2.43,5.39-3.13
								c0.61-0.33,1.1-0.59,1.49-0.8C221.43,233.61,221.62,233.53,221.63,233.54z"/>
						</g>
					</g>
				</g>
			</g>
			<g>
				<g>
					<path class="st7" d="M184.38,91.16c-0.11,0.13-2.41-2.25-5.98-4.03c-3.56-1.82-6.83-2.26-6.79-2.42
						c0.01-0.06,0.83-0.03,2.14,0.23c1.3,0.26,3.07,0.81,4.89,1.73c1.82,0.92,3.31,2.02,4.29,2.91
						C183.91,90.47,184.42,91.12,184.38,91.16z"/>
				</g>
			</g>
			<g>
				<g>
					<path class="st7" d="M193.99,101.8c0.02,0.14-3.57,0.82-8.02,1.52c-4.45,0.7-8.08,1.14-8.1,1c-0.02-0.14,3.57-0.82,8.02-1.52
						C190.34,102.11,193.97,101.66,193.99,101.8z"/>
				</g>
			</g>
		</g>
		<g>
			<g>
				<g>
					<g>
						<g>
							<g>
								<g>
									<g>
										<g>
											<g>
												<g>
													<path class="st6" d="M229.88,178.87c1.63-20.77,18.94-36.81,39.78-36.85l2.07,0c22.33,1.26,33.73,20.92,31.86,43.21
														l-4,102.95H248.4l0.45-33.51c0,0-21.47-3.29-21.78-24.75C226.93,219.55,228.36,198.19,229.88,178.87z"/>
												</g>
												<g>
													<g>
														<g>
															<g>
																<g>
																	<g>
																		<g>
																			<g>
																				<g>
																					<g>
																						<g>
																							<path class="st7" d="M248.68,254.63c0,0,13.7,0.8,28.1-8.29c0,0-6.58,15.46-28,13.57L248.68,254.63z"/>
																						</g>
																					</g>
																				</g>
																			</g>
																		</g>
																	</g>
																</g>
															</g>
														</g>
													</g>
												</g>
											</g>
										</g>
									</g>
									<g>
										<g>
											<g>
												<g>
													<g>
														<g>
															<g>
																<g>
																	<g>
																		<g>
																			<g>
																				<g>
																					<g>
																						<g>
																							<g>
																								<g>
																									<g>
																										<g>
																											<path class="st10" d="M234.51,195.29c0.38,0.4,2.7-1.32,6-1.32c3.29-0.05,5.72,1.65,6.07,1.24
																												c0.18-0.18-0.21-0.9-1.27-1.66c-1.04-0.76-2.81-1.5-4.86-1.49c-2.05,0.02-3.78,0.77-4.77,1.55
																												C234.66,194.39,234.32,195.11,234.51,195.29z"/>
																										</g>
																									</g>
																								</g>
																							</g>
																						</g>
																					</g>
																				</g>
																			</g>
																		</g>
																	</g>
																</g>
															</g>
														</g>
														<g>
															<g>
																<g>
																	<g>
																		<g>
																			<g>
																				<g>
																					<g>
																						<g>
																							<g>
																								<g>
																									<g>
																										<g>
																											<path class="st10" d="M267.2,193.64c0.38,0.4,2.7-1.32,6-1.32c3.29-0.05,5.72,1.65,6.07,1.24
																												c0.17-0.18-0.21-0.9-1.27-1.66c-1.04-0.76-2.81-1.5-4.86-1.49c-2.05,0.02-3.78,0.78-4.77,1.55
																												C267.36,192.74,267.02,193.46,267.2,193.64z"/>
																										</g>
																									</g>
																								</g>
																							</g>
																						</g>
																					</g>
																				</g>
																			</g>
																		</g>
																	</g>
																</g>
															</g>
														</g>
														<g>
															<g>
																<g>
																	<g>
																		<g>
																			<g>
																				<g>
																					<g>
																						<g>
																							<g>
																								<g>
																									<g>
																										<path class="st10" d="M255.01,214.38c0.02-0.19-2.04-0.54-5.36-0.96c-0.84-0.08-1.64-0.25-1.78-0.83
																											c-0.2-0.61,0.15-1.52,0.56-2.5c0.79-2.04,1.61-4.18,2.48-6.42c3.44-9.14,5.93-16.65,5.56-16.78
																											c-0.37-0.13-3.46,7.16-6.9,16.3c-0.83,2.25-1.62,4.4-2.37,6.46c-0.32,0.96-0.86,2.04-0.43,3.31
																											c0.23,0.63,0.85,1.08,1.39,1.23c0.54,0.16,1.01,0.17,1.43,0.2C252.92,214.56,255,214.57,255.01,214.38z"
																											/>
																									</g>
																								</g>
																							</g>
																						</g>
																					</g>
																				</g>
																			</g>
																		</g>
																	</g>
																</g>
															</g>
														</g>
														<g>
															<g>
																<g>
																	<g>
																		<g>
																			<g>
																				<g>
																					<g>
																						<g>
																							<g>
																								<g>
																									<g>
																										<path class="st10" d="M264.72,216.64c-0.54-0.03-0.54,3.55-3.59,6.1c-3.05,2.56-6.87,2.16-6.9,2.66
																											c-0.05,0.22,0.85,0.69,2.46,0.73c1.58,0.05,3.89-0.46,5.76-2.02c1.87-1.56,2.66-3.64,2.78-5.11
																											C265.36,217.51,264.96,216.62,264.72,216.64z"/>
																									</g>
																								</g>
																							</g>
																						</g>
																					</g>
																				</g>
																			</g>
																		</g>
																	</g>
																</g>
															</g>
														</g>
													</g>
												</g>
											</g>
											<g>
												<g>
													<g>
														<g>
															<g>
																<g>
																	<g>
																		<g>
																			<g>
																				<g>
																					<g>
																						<path class="st2" d="M267.17,180.22c0.3,0.9,3.61,0.56,7.46,1.12c3.87,0.48,6.96,1.69,7.49,0.9
																							c0.24-0.38-0.28-1.24-1.52-2.13c-1.23-0.9-3.2-1.77-5.52-2.09c-2.32-0.31-4.45,0.01-5.87,0.54
																							C267.77,179.1,267.04,179.79,267.17,180.22z"/>
																					</g>
																				</g>
																			</g>
																		</g>
																	</g>
																</g>
															</g>
														</g>
													</g>
												</g>
											</g>
											<g>
												<g>
													<g>
														<g>
															<g>
																<g>
																	<g>
																		<g>
																			<g>
																				<g>
																					<g>
																						<path class="st2" d="M233.73,181.8c0.72,0.74,3.49-0.08,6.83-0.16c3.34-0.18,6.18,0.42,6.82-0.37
																							c0.28-0.38-0.17-1.13-1.42-1.82c-1.23-0.69-3.28-1.24-5.57-1.15c-2.3,0.09-4.28,0.8-5.43,1.58
																							C233.79,180.66,233.41,181.44,233.73,181.8z"/>
																					</g>
																				</g>
																			</g>
																		</g>
																	</g>
																</g>
															</g>
														</g>
													</g>
												</g>
											</g>
										</g>
									</g>
								</g>
							</g>
						</g>
						<g>
							<g>
								<g>
									<g>
										<g>
											<g>
												<g>
													<g>
														<g>
															<g>
																<g>
																	<g>
																		<path class="st6" d="M300.37,201.11c0.37-0.16,14.74-4.39,14.3,10.28c-0.44,14.67-15.08,11.2-15.09,10.78
																			C299.57,221.75,300.37,201.11,300.37,201.11z"/>
																	</g>
																</g>
															</g>
														</g>
													</g>
												</g>
											</g>
										</g>
									</g>
								</g>
							</g>
							<g>
								<g>
									<g>
										<g>
											<g>
												<g>
													<g>
														<g>
															<g>
																<g>
																	<g>
																		<g>
																			<path class="st7" d="M302.94,216.75c0.07-0.04,0.25,0.19,0.68,0.4c0.42,0.21,1.14,0.36,1.91,0.1
																				c1.57-0.52,2.95-2.94,3.1-5.59c0.08-1.33-0.16-2.61-0.61-3.68c-0.42-1.09-1.09-1.86-1.86-2.02
																				c-0.77-0.2-1.34,0.25-1.53,0.66c-0.21,0.4-0.12,0.7-0.2,0.72c-0.04,0.04-0.31-0.26-0.17-0.86
																				c0.07-0.29,0.25-0.63,0.6-0.9c0.36-0.28,0.88-0.41,1.42-0.33c1.13,0.11,2.12,1.18,2.6,2.35
																				c0.55,1.18,0.85,2.62,0.76,4.12c-0.18,2.95-1.78,5.67-3.92,6.22c-1.04,0.24-1.89-0.1-2.33-0.46
																				C302.95,217.11,302.89,216.78,302.94,216.75z"/>
																		</g>
																	</g>
																</g>
															</g>
														</g>
													</g>
												</g>
											</g>
										</g>
									</g>
								</g>
							</g>
						</g>
					</g>
				</g>
			</g>
			<g>
				<g>
					<path class="st7" d="M250.18,174.1c0.02-0.07,1,0.08,2.57,0.37c1.57,0.28,3.74,0.69,6.15,0.97c2.41,0.28,4.61,0.31,6.19,0.2
						c1.58-0.1,2.56-0.27,2.58-0.19c0.01,0.06-0.94,0.36-2.54,0.55c-1.6,0.2-3.84,0.23-6.28-0.05c-2.44-0.28-4.61-0.76-6.17-1.13
						C251.11,174.45,250.16,174.17,250.18,174.1z"/>
				</g>
			</g>
			<g>
				<g>
					<path class="st7" d="M250.55,169.69c0.07-0.15,2.89,1.37,6.66,2.36c3.77,1.02,6.96,1.1,6.95,1.27c0,0.06-0.8,0.13-2.1,0.05
						c-1.29-0.07-3.08-0.31-4.99-0.82c-1.91-0.51-3.58-1.19-4.74-1.77C251.18,170.2,250.52,169.75,250.55,169.69z"/>
				</g>
			</g>
			<g>
				<g>
					<path class="st7" d="M264.64,215.39c-0.01-0.06,0.26-0.19,0.74-0.2c0.47-0.02,1.15,0.12,1.78,0.49
						c0.63,0.38,1.07,0.9,1.28,1.33c0.22,0.43,0.24,0.73,0.18,0.75c-0.14,0.06-0.59-0.97-1.72-1.63
						C265.78,215.44,264.66,215.54,264.64,215.39z"/>
				</g>
			</g>
			<g>
				<g>
					<path class="st7" d="M267.83,212.17c-0.01-0.05,0.83-0.27,2.2-0.11c1.36,0.15,3.26,0.79,4.82,2.24
						c1.56,1.46,2.34,3.31,2.58,4.65c0.26,1.36,0.1,2.21,0.05,2.21c-0.09,0-0.07-0.84-0.4-2.12c-0.33-1.27-1.11-2.99-2.58-4.35
						c-1.47-1.37-3.24-2.02-4.53-2.26C268.68,212.17,267.84,212.26,267.83,212.17z"/>
				</g>
			</g>
			<g>
				<path class="st2" d="M228.24,152.97c1.04-1.2,2.23-2.29,3.04-3.66c0.92-1.57,1.28-3.41,2.07-5.04
					c2.25-4.65,8.31-7.03,13.13-5.16c1.88-3.66,5.29-6.5,9.23-7.69c3.94-1.19,8.35-0.71,11.94,1.29c1.26,0.7,2.52,1.61,3.96,1.61
					c1.22-0.01,2.31-0.67,3.43-1.14c3.47-1.48,7.64-1.19,10.87,0.76c3.23,1.95,5.44,5.5,5.75,9.26c3.12-0.63,6.55,0.53,8.64,2.94
					c1.87,2.15,2.6,5.22,1.97,8c4.41-1.65,9.88,0.16,12.39,4.15c2.56,4.07,1.76,9.94-1.81,13.17c2.39,1.55,3.08,4.99,1.99,7.63
					c-1.08,2.64-3.58,4.49-6.26,5.46c-0.76,0.28-1.54,0.49-2.34,0.66c-0.79,2.49-1.56,4.93-2.09,7.26
					c-0.91,4.02-2.67,16.17-2.67,16.17s0,0,0,0c-3.37-0.01-4.62-2.69-4.11-6.03l0.63-13.07c0,0-11.46-8.15-6.03-23.06
					c0.44-0.6,1.13-2.29,1.19-4.1c-0.93-5.18-5.8-4.34-8.69-3.99c-2.89,0.36-5.55,1.74-8.07,3.2c-2.53,1.45-5.04,3.01-7.85,3.78
					c-4.54,1.25-9.43,0.3-13.78-1.49c-2.53-1.04-5.11-2.38-7.82-2.05c-5.74,0.7-8.75,8.38-14.51,8.86
					c-3.88,0.32-7.36-3.18-7.94-7.03C223.91,159.79,225.68,155.9,228.24,152.97z"/>
			</g>
			<g>
				<g>
					<path class="st11" d="M229.02,152.08c0.03,0.01-0.06,0.23-0.08,0.66c-0.01,0.43,0.1,1.1,0.58,1.77
						c0.47,0.67,1.33,1.36,2.51,1.47c1.17,0.13,2.55-0.3,3.75-1.2c1.22-0.91,2.21-2.28,3.24-3.79c1.03-1.49,2.17-3.22,4.05-4.32
						c1.87-1.08,4.27-1.31,6.55-0.75c2.29,0.56,4.42,1.86,6.32,3.47l-0.41,0.15c0.59-3.05,2.73-5.93,5.78-7.32
						c2.86-1.31,6.18-1.08,8.79,0.25c1.32,0.65,2.42,1.64,3.34,2.67c0.94,1.02,1.78,2.08,2.72,2.96c0.93,0.89,2.01,1.57,3.19,1.8
						c1.18,0.23,2.37,0,3.47-0.31c1.11-0.31,2.18-0.71,3.26-0.95c1.08-0.25,2.16-0.3,3.16-0.18c2.02,0.22,3.74,1.04,4.98,2.06
						c1.25,1.02,2.04,2.19,2.53,3.2c0.49,1.01,0.7,1.87,0.79,2.45c0.05,0.29,0.07,0.51,0.08,0.66c0.01,0.15,0.01,0.23,0,0.23
						c-0.08,0.02-0.05-1.27-1.06-3.25c-0.5-0.97-1.3-2.1-2.53-3.06c-1.21-0.96-2.89-1.73-4.84-1.92c-0.97-0.1-2-0.04-3.04,0.21
						c-1.04,0.24-2.1,0.64-3.23,0.97c-1.13,0.33-2.38,0.59-3.68,0.35c-1.29-0.24-2.46-0.98-3.43-1.9c-1.96-1.8-3.42-4.29-5.97-5.52
						c-2.48-1.26-5.65-1.46-8.35-0.23c-2.89,1.31-4.93,4.06-5.49,6.94l-0.08,0.43l-0.33-0.28c-1.86-1.58-3.91-2.85-6.1-3.39
						c-2.17-0.55-4.45-0.33-6.21,0.67c-1.77,1.01-2.9,2.68-3.94,4.16c-1.04,1.5-2.08,2.9-3.36,3.83c-1.27,0.92-2.73,1.35-3.98,1.19
						c-1.27-0.14-2.17-0.91-2.63-1.62c-0.48-0.73-0.57-1.44-0.53-1.88C228.9,152.29,229.02,152.08,229.02,152.08z"/>
				</g>
			</g>
			<g>
				<g>
					<path class="st11" d="M298.24,181.18c0.01-0.05,0.55,0.12,1.53,0.22c0.98,0.08,2.45,0.09,4.1-0.53
						c1.64-0.58,3.42-1.92,4.35-4.05c0.47-1.04,0.73-2.25,0.63-3.49c-0.09-1.23-0.59-2.47-1.41-3.49c-1.04-1.3-2.54-2.14-4.03-2.32
						l-0.54-0.06l0.4-0.37c1.51-1.39,1.99-3.5,1.67-5.17c-0.3-1.71-1.44-2.93-2.52-3.59c-1.1-0.68-2.15-0.86-2.85-0.89
						c-0.71-0.03-1.1,0.05-1.11,0.01c0-0.01,0.09-0.04,0.28-0.09c0.18-0.05,0.47-0.08,0.83-0.09c0.72-0.02,1.83,0.12,3.01,0.79
						c1.16,0.65,2.42,1.93,2.78,3.79c0.37,1.8-0.11,4.07-1.76,5.62l-0.14-0.44c1.63,0.18,3.26,1.09,4.38,2.49
						c0.89,1.1,1.42,2.45,1.52,3.78c0.1,1.33-0.19,2.63-0.7,3.73c-1.01,2.24-2.94,3.64-4.66,4.2c-1.74,0.59-3.26,0.52-4.25,0.38
						c-0.5-0.08-0.88-0.18-1.13-0.27C298.36,181.25,298.23,181.2,298.24,181.18z"/>
				</g>
			</g>
		</g>
		<g>
			<g>
				<g>
					<path class="st8" d="M192.28,474.86C192.27,474.41,192.28,477.98,192.28,474.86c-0.01-25.2,9.68-82.03,9.68-82.03
						c1.09-7.99,23.19-109.57,23.19-109.57l23.98-10.66l0,0c3.51,7.72,12.57,11.19,20.34,7.78l31.39-13.79l44.97,24.84l9.31,55.5
						c0,0-29.97,69.18-28.97,74.18c1,5.01-6.6,34.04-6.6,34.04l0.26,19.9L192.28,474.86z"/>
				</g>
				<g class="st12">
					<g>
						<path d="M229.64,440.9c6.16,8.9,10.04,15.2,18.96,18.16c17.11,5.68,22.61,2.55,30.92-1.84c6.87-3.63,11.49-11.67,16.07-17.94
							c11.95-16.35,17.55-25.92,28.18-42.12l4.4,3.09c-7.28,21.24-1.43,10.03-12.67,29.46c-6.49,11.22-13.78,22.27-23.87,30.42
							c-10.08,8.15-23.42,13.1-36.14,10.57c-11.55-2.3-21.1-10.31-29.22-18.84c-11.29-11.87-23.46-36.63-24.34-52.98
							C202.04,400.02,221.67,429.39,229.64,440.9z"/>
					</g>
				</g>
				<g>
					<g>
						<path class="st10" d="M212.73,341.02c-0.02,0,0.01-0.17,0.07-0.48c0.08-0.37,0.17-0.81,0.29-1.35
							c0.27-1.17,0.62-2.86,1.03-4.96c0.83-4.2,1.82-10.03,2.75-16.5c0.95-6.47,1.71-12.34,2.29-16.58c0.3-2.06,0.54-3.76,0.72-5.02
							c0.09-0.54,0.17-0.99,0.23-1.36c0.06-0.31,0.1-0.47,0.12-0.47c0.02,0,0.01,0.17-0.01,0.48c-0.04,0.37-0.08,0.83-0.13,1.37
							c-0.14,1.27-0.33,2.98-0.56,5.04c-0.49,4.26-1.19,10.14-2.14,16.61c-0.94,6.47-1.99,12.31-2.91,16.5
							c-0.46,2.1-0.87,3.78-1.2,4.94c-0.15,0.53-0.28,0.97-0.38,1.33C212.8,340.87,212.74,341.03,212.73,341.02z"/>
					</g>
				</g>
			</g>
			<g>
				<g>
					<path class="st10" d="M192.28,473.21c-0.02,0-0.01-0.26,0.02-0.75c0.04-0.54,0.09-1.25,0.16-2.13c0.17-1.91,0.4-4.56,0.68-7.83
						c0.63-6.65,1.5-15.75,2.46-25.8c1.02-10.05,1.94-19.14,2.61-25.79c0.35-3.25,0.64-5.91,0.85-7.81
						c0.11-0.88,0.19-1.59,0.26-2.12c0.06-0.48,0.11-0.74,0.12-0.74c0.02,0,0.01,0.26-0.02,0.75c-0.04,0.54-0.09,1.25-0.16,2.13
						c-0.17,1.9-0.4,4.56-0.68,7.83c-0.63,6.65-1.5,15.75-2.46,25.8c-1.02,10.04-1.93,19.14-2.61,25.79
						c-0.35,3.26-0.64,5.91-0.85,7.81c-0.11,0.88-0.19,1.59-0.26,2.12C192.34,472.95,192.3,473.21,192.28,473.21z"/>
				</g>
			</g>
			<g>
				<g>
					<path class="st9" d="M288.22,336.53c0,0.02-0.26,0.03-0.75,0.03c-0.54,0-1.25-0.01-2.14-0.02c-1.86-0.03-4.55-0.1-7.88-0.22
						c-6.65-0.26-15.84-0.71-25.96-1.63c-10.12-0.92-19.26-2.16-25.75-3.71c-3.25-0.77-5.82-1.63-7.52-2.42
						c-1.69-0.81-2.45-1.54-2.45-1.54c0.04-0.05,0.84,0.61,2.54,1.35c1.71,0.73,4.28,1.52,7.52,2.24
						c6.48,1.46,15.61,2.64,25.72,3.55c10.11,0.92,19.29,1.43,25.93,1.78c3.28,0.16,5.96,0.29,7.87,0.39
						c0.89,0.05,1.6,0.08,2.14,0.11C287.97,336.49,288.22,336.51,288.22,336.53z"/>
				</g>
			</g>
			<g>
				<g>
					<path class="st9" d="M282.72,347.2c0,0.02-0.24,0.04-0.71,0.06c-0.52,0.01-1.19,0.03-2.03,0.06c-1.76,0.04-4.32,0.07-7.47,0.05
						c-6.31-0.03-15.04-0.24-24.63-1.14c-4.8-0.47-9.35-1.08-13.47-1.78c-4.11-0.76-7.8-1.51-10.84-2.35
						c-1.53-0.38-2.9-0.8-4.1-1.17c-1.2-0.36-2.23-0.69-3.05-1.01c-0.79-0.29-1.42-0.52-1.91-0.7c-0.43-0.17-0.66-0.26-0.65-0.28
						c0.01-0.02,0.24,0.05,0.69,0.18c0.49,0.16,1.14,0.36,1.94,0.61c0.83,0.28,1.87,0.59,3.07,0.92c1.2,0.34,2.57,0.74,4.11,1.09
						c3.05,0.8,6.73,1.51,10.83,2.24c4.11,0.66,8.65,1.26,13.44,1.73c9.57,0.9,18.28,1.16,24.59,1.29c3.11,0.05,5.64,0.09,7.47,0.12
						c0.84,0.02,1.51,0.03,2.03,0.04C282.48,347.16,282.72,347.18,282.72,347.2z"/>
				</g>
			</g>
			<g>
				<g>
					<path class="st10" d="M241.53,258.92c0.05,0.08-1.49,1.1-3.75,3.02c-1.13,0.96-2.42,2.17-3.77,3.58
						c-1.34,1.43-2.73,3.08-4.06,4.9c-1.32,1.84-2.44,3.68-3.37,5.4c-0.92,1.73-1.66,3.33-2.21,4.71c-1.11,2.75-1.59,4.53-1.68,4.51
						c-0.03-0.01,0.06-0.46,0.27-1.27c0.2-0.81,0.56-1.97,1.07-3.37c0.51-1.41,1.23-3.04,2.13-4.8c0.92-1.75,2.05-3.62,3.38-5.48
						c1.34-1.85,2.77-3.5,4.14-4.93c1.39-1.41,2.71-2.61,3.89-3.54c1.17-0.93,2.15-1.64,2.86-2.08
						C241.11,259.12,241.51,258.89,241.53,258.92z"/>
				</g>
			</g>
		</g>
		<g>
			<g>
				<g>
					<g>
						<path class="st6" d="M155.97,302.42c0,0-0.89-4.14-0.32-5.22c0.56-1.08,2.38-2.24,2.38-2.24s0.93-6.61,2.39-8.68
							c1.65-2.32,8.06-2.04,8.06-2.04s1.16-1.54,2.12-3.07c0.95-1.53,14.1-2.55,16.42-2.48c2.31,0.07,3.12,6.31,3.12,6.31
							s4.98-0.94,5.85-0.36c0.87,0.58,7.46,12.12,8.03,14.61c0.57,2.48-2.74,10.03-2.74,10.03c-0.73,1.77-5.6,11.83-5.6,11.83
							l3.51,4.75l59.17,70.12c0,0,13.6-21.32,29.6-50.69c17.49-32.11,27.05-56.07,45.93-56.62l21.25,57.73
							c-4.45,10.86-62.14,99.26-71.21,107.68c-9.07,8.42-19.5,11.2-38.47,4.4c-13.79-4.95-63.25-94.11-73.22-112.28v0l-10.86-17.26
							l-8.06-14.81c0,0-0.12-5.45-0.47-7.73C152.51,304.1,155.97,302.42,155.97,302.42z"/>
					</g>
					<g>
						<g>
							<path class="st7" d="M183.2,282.73c0.01-0.05,0.87,0.57,1.32,2.08c0.24,0.72,0.41,1.61,1.02,2.32
								c0.6,0.73,1.58,1.13,2.67,1.55c2.24,0.87,3.69,2.65,4.33,4.03c0.33,0.7,0.5,1.3,0.57,1.72c0.08,0.42,0.07,0.66,0.04,0.66
								c-0.09,0.02-0.23-0.92-0.94-2.22c-0.71-1.28-2.1-2.9-4.2-3.72c-1.04-0.4-2.17-0.87-2.84-1.73c-0.68-0.85-0.81-1.82-1-2.52
								C183.82,283.46,183.12,282.8,183.2,282.73z"/>
						</g>
					</g>
					<g>
						<g>
							<path class="st7" d="M186.98,288.15c0.03-0.08,0.39,0.09,0.93-0.04c0.53-0.11,1.24-0.56,1.53-1.37
								c0.32-0.81,0.35-1.64,0.36-2.23c0.01-0.6-0.01-0.98,0.07-0.99c0.07-0.01,0.21,0.35,0.3,0.97c0.08,0.61,0.12,1.51-0.25,2.45
								c-0.36,0.98-1.3,1.51-1.96,1.54C187.27,288.53,186.94,288.19,186.98,288.15z"/>
						</g>
					</g>
					<g>
						<g>
							<path class="st7" d="M192.31,292.1c-0.12,0.03-0.57-0.69-0.95-1.76c-0.18-0.55-0.18-1.1-0.09-1.47
								c0.09-0.37,0.22-0.57,0.28-0.55c0.15,0.04-0.03,0.9,0.3,1.87C192.21,291.16,192.47,292.06,192.31,292.1z"/>
						</g>
					</g>
				</g>
				<g>
					<g>
						<path class="st7" d="M167.61,292.15c-0.12,0.05-0.81-1.76-0.54-4.08c0.24-2.32,1.31-3.94,1.41-3.86
							c0.14,0.07-0.67,1.72-0.89,3.92C167.34,290.33,167.77,292.12,167.61,292.15z"/>
					</g>
				</g>
				<g>
					<g>
						<path class="st7" d="M158.6,299.76c-0.13,0.05-0.64-1.04-0.78-2.51c-0.15-1.47,0.15-2.64,0.28-2.61
							c0.15,0.02,0.1,1.17,0.24,2.56C158.47,298.6,158.74,299.71,158.6,299.76z"/>
					</g>
				</g>
				<g>
					<g>
						<path class="st7" d="M156.75,307.36c-0.12,0.07-0.83-0.95-1.28-2.4c-0.46-1.45-0.44-2.7-0.31-2.71
							c0.15-0.01,0.37,1.16,0.8,2.55C156.39,306.2,156.88,307.29,156.75,307.36z"/>
					</g>
				</g>
			</g>
			<g>
				<g>
					<path class="st7" d="M255.95,428.78c-0.03-0.02,0.15-0.47,0.49-1.26c0.18-0.4,0.39-0.88,0.61-1.46
						c0.22-0.58,0.5-1.22,0.74-1.96c0.53-1.46,1.04-3.24,1.51-5.23c0.43-2,0.8-4.23,0.98-6.59c0.17-2.36,0.14-4.62,0.01-6.66
						c-0.16-2.04-0.4-3.88-0.7-5.4c-0.12-0.77-0.3-1.45-0.43-2.05c-0.13-0.6-0.26-1.12-0.38-1.54c-0.22-0.84-0.33-1.31-0.3-1.32
						c0.03-0.01,0.21,0.44,0.49,1.27c0.15,0.41,0.31,0.92,0.47,1.52c0.16,0.6,0.37,1.28,0.51,2.05c0.35,1.53,0.64,3.37,0.82,5.44
						c0.16,2.07,0.2,4.35,0.03,6.74c-0.19,2.39-0.57,4.64-1.04,6.66c-0.49,2.01-1.05,3.8-1.63,5.25c-0.26,0.74-0.57,1.38-0.81,1.95
						c-0.24,0.57-0.48,1.05-0.69,1.44C256.22,428.37,255.98,428.79,255.95,428.78z"/>
				</g>
			</g>
			<g>
				<g>
					<path class="st7" d="M171.41,298.84c0.09,0-0.02,1.11,0.14,2.86c0.1,0.86,0.29,1.92,0.89,2.86c0.3,0.46,0.73,0.87,1.26,1.14
						c0.26,0.14,0.58,0.25,0.89,0.44c0.31,0.17,0.65,0.53,0.69,0.97c0.04,0.88-0.51,1.41-0.57,1.95c-0.1,0.52,0.21,1.06,0.5,1.56
						c0.58,1.01,1.21,1.85,1.78,2.52c1.14,1.34,2.02,2.02,1.97,2.09c-0.02,0.03-0.26-0.11-0.66-0.41c-0.4-0.3-0.96-0.77-1.58-1.43
						c-0.62-0.65-1.3-1.5-1.91-2.52c-0.29-0.49-0.7-1.1-0.59-1.89c0.12-0.72,0.62-1.29,0.55-1.81c-0.04-0.52-0.71-0.72-1.3-1.03
						c-0.61-0.32-1.09-0.81-1.42-1.34c-0.65-1.07-0.8-2.19-0.86-3.09c-0.05-0.9,0.01-1.63,0.07-2.13
						C171.31,299.11,171.37,298.84,171.41,298.84z"/>
				</g>
			</g>
			<g>
				<g>
					<path class="st7" d="M165.16,303.56c0.1,0.01-0.33,0.91,0.09,2.27c0.21,0.68,0.66,1.36,1.44,1.91
						c0.38,0.28,0.85,0.76,0.91,1.38c0.08,0.6-0.08,1.17-0.2,1.7c-0.55,2.11,0.13,4.12,0.88,5.3c0.76,1.21,1.54,1.72,1.48,1.8
						c-0.02,0.03-0.23-0.07-0.56-0.32c-0.34-0.24-0.78-0.67-1.22-1.27c-0.87-1.19-1.67-3.34-1.08-5.62
						c0.13-0.54,0.26-1.06,0.21-1.51c-0.04-0.46-0.34-0.78-0.71-1.08c-0.8-0.58-1.33-1.44-1.5-2.18c-0.19-0.75-0.12-1.38-0.01-1.78
						C165,303.74,165.14,303.55,165.16,303.56z"/>
				</g>
			</g>
			<g>
				<g>
					<path class="st8" d="M341.79,289.02c0,0,22.75,9.38,18.32,44.23c-0.37,2.9-1.22,5.71-2.54,8.31
						c-6.68,13.18-29.53,58.28-29.84,59.03c-0.37,0.88-53.01-37.18-53.01-37.18S305.46,273.31,341.79,289.02z"/>
				</g>
				<g>
					<g>
						<path class="st10" d="M359.39,337.98c0,0-0.04,0.11-0.13,0.31c-0.1,0.21-0.24,0.51-0.43,0.89c-0.39,0.79-0.96,1.94-1.69,3.43
							c-1.5,3.01-3.69,7.37-6.44,12.89c-5.57,11.06-13.45,26.72-22.75,45.21l-0.12,0.24l-0.23-0.16
							c-12.11-8.49-25.66-17.98-39.92-27.97c-4.49-3.15-8.9-6.25-13.1-9.19l-0.19-0.13l0.11-0.2c3.56-6.34,6.82-12.6,9.72-18.74
							c2.89-6.14,5.42-12.16,8.13-17.73c2.7-5.58,5.48-10.74,8.17-15.49c2.52-4.87,5.75-8.89,8.99-12.18
							c3.26-3.27,6.62-5.87,9.97-7.38c3.33-1.53,6.45-2.2,8.98-2.47c2.55-0.28,4.54-0.15,5.86,0.01c0.66,0.08,1.17,0.17,1.5,0.25
							c0.34,0.07,0.5,0.12,0.5,0.12s-0.18-0.02-0.51-0.07c-0.34-0.06-0.84-0.13-1.5-0.2c-1.32-0.13-3.31-0.23-5.83,0.08
							c-2.52,0.3-5.6,0.99-8.89,2.53c-3.31,1.51-6.61,4.11-9.84,7.37c-3.21,3.29-6.39,7.27-8.88,12.13
							c-2.67,4.76-5.43,9.92-8.11,15.49c-2.7,5.56-5.21,11.58-8.09,17.74c-2.9,6.15-6.16,12.43-9.72,18.78l-0.08-0.34
							c4.2,2.94,8.61,6.04,13.1,9.19c14.25,10.01,27.79,19.51,39.9,28.01l-0.35,0.09c9.37-18.45,17.31-34.09,22.92-45.12
							c2.81-5.49,5.03-9.84,6.56-12.83c0.76-1.47,1.35-2.61,1.76-3.39c0.2-0.37,0.35-0.66,0.46-0.87
							C359.33,338.08,359.39,337.98,359.39,337.98z"/>
					</g>
				</g>
			</g>
			<g>
				<g>
					<path class="st9" d="M337.13,379.24c-0.01,0.02-0.2-0.09-0.56-0.3c-0.4-0.24-0.92-0.56-1.55-0.95
						c-1.39-0.88-3.31-2.09-5.65-3.57c-4.79-3.09-11.32-7.3-18.53-11.96c-7.24-4.66-13.85-8.79-18.67-11.73
						c-2.37-1.44-4.31-2.62-5.71-3.47c-0.63-0.39-1.15-0.71-1.55-0.96c-0.35-0.22-0.53-0.35-0.52-0.36
						c0.01-0.02,0.21,0.08,0.57,0.27c0.41,0.23,0.94,0.51,1.6,0.87c1.38,0.76,3.36,1.9,5.8,3.33c4.87,2.86,11.52,6.94,18.76,11.61
						c7.25,4.66,13.74,8.97,18.45,12.09c2.31,1.54,4.19,2.8,5.56,3.71c0.61,0.42,1.11,0.76,1.5,1.03
						C336.96,379.09,337.14,379.23,337.13,379.24z"/>
				</g>
			</g>
			<g>
				<g>
					<path class="st9" d="M335.87,383.64c-0.01,0.02-0.21-0.08-0.57-0.28c-0.41-0.23-0.94-0.53-1.59-0.9
						c-1.43-0.83-3.4-1.98-5.8-3.38c-4.93-2.93-11.64-6.92-19.05-11.33c-7.39-4.46-14.07-8.5-18.98-11.46
						c-2.37-1.46-4.31-2.66-5.72-3.52c-0.63-0.4-1.14-0.73-1.54-0.98c-0.35-0.23-0.53-0.36-0.52-0.37c0.01-0.02,0.21,0.08,0.57,0.28
						c0.41,0.23,0.94,0.53,1.59,0.9c1.43,0.83,3.4,1.98,5.81,3.38c4.93,2.93,11.64,6.92,19.05,11.33
						c7.38,4.46,14.07,8.49,18.97,11.45c2.37,1.46,4.31,2.66,5.72,3.52c0.63,0.4,1.14,0.73,1.54,0.98
						C335.7,383.5,335.88,383.63,335.87,383.64z"/>
				</g>
			</g>
		</g>
	</g>
</g>
<g id="Plant">
	<g>
		<g>
			<g>
				<g>
					<path class="st8" d="M62.31,415.32c3.19,0.15,6.18,1.91,8.26,4.34s3.34,5.46,4.14,8.56c1.54,5.99,0.48,13.04-1.29,18.97
						c-6.45-2.38-10.36-9.32-12.13-12.97C58.5,428.45,56.95,416.34,62.31,415.32"/>
				</g>
			</g>
		</g>
		<g>
			<g>
				<g>
					<path class="st8" d="M82.65,454.53c-2.01-2.95-2.02-7.03-0.37-10.2c1.65-3.17,4.77-5.44,8.2-6.45
						c1.58-0.47,3.42-0.65,4.78,0.28c1.27,0.87,1.81,2.56,1.63,4.09c-0.18,1.53-0.97,2.93-1.91,4.16
						C91.8,450.64,87.93,454.15,82.65,454.53"/>
				</g>
			</g>
		</g>
		<g>
			<g>
				<g>
					<g>
						<path class="st10" d="M83.15,474.51c-0.03,0-0.12-0.44-0.28-1.24c-0.16-0.89-0.38-2.04-0.63-3.41
							c-0.48-2.87-1.25-6.95-0.59-11.45c0.64-4.48,2.46-8.29,4.36-10.56c0.93-1.15,1.82-1.96,2.48-2.45
							c0.32-0.26,0.6-0.42,0.78-0.55c0.18-0.12,0.28-0.17,0.29-0.16c0.07,0.08-1.52,1.04-3.3,3.36c-1.8,2.28-3.54,6.03-4.16,10.43
							c-0.65,4.4,0.05,8.45,0.46,11.33c0.22,1.45,0.39,2.62,0.49,3.44C83.15,474.05,83.18,474.5,83.15,474.51z"/>
					</g>
				</g>
			</g>
		</g>
		<g>
			<g>
				<g>
					<g>
						<path class="st10" d="M64.3,424.44c0.01-0.01,0.1,0.16,0.26,0.49c0.17,0.37,0.38,0.85,0.65,1.45
							c0.56,1.26,1.34,3.09,2.29,5.37c1.9,4.55,4.44,10.87,7.09,17.91c2.64,7.04,4.89,13.47,6.46,18.15
							c0.78,2.34,1.4,4.23,1.81,5.55c0.19,0.62,0.34,1.13,0.46,1.52c0.1,0.35,0.15,0.53,0.13,0.54c-0.01,0-0.09-0.17-0.22-0.51
							c-0.14-0.39-0.32-0.88-0.54-1.49c-0.48-1.35-1.14-3.22-1.94-5.5c-1.64-4.65-3.93-11.05-6.58-18.09
							c-2.64-7.03-5.13-13.37-6.96-17.94c-0.9-2.25-1.63-4.09-2.16-5.42c-0.24-0.61-0.43-1.1-0.57-1.48
							C64.35,424.63,64.29,424.44,64.3,424.44z"/>
					</g>
				</g>
			</g>
		</g>
		<g>
			<g>
				<g>
					<path class="st8" d="M75.61,461.21c-3.75-6.53-10.82-11.03-18.33-11.66c-1.91-0.16-4.22,0.14-5.09,1.85
						c-0.87,1.71,0.25,3.76,1.54,5.19c5.36,5.93,14.51,8.07,21.95,5.14"/>
				</g>
			</g>
		</g>
		<g>
			<g>
				<g>
					<g>
						<path class="st10" d="M60.14,454.7c0-0.03,0.43-0.01,1.2,0.06c0.39,0.03,0.86,0.07,1.4,0.18c0.54,0.11,1.16,0.17,1.83,0.36
							c0.67,0.17,1.41,0.34,2.17,0.63c0.78,0.24,1.58,0.58,2.42,0.95c1.66,0.77,3.42,1.78,5.09,3.09c1.66,1.32,3.06,2.79,4.19,4.23
							c0.54,0.74,1.06,1.44,1.47,2.15c0.45,0.68,0.78,1.37,1.09,1.99c0.33,0.61,0.53,1.21,0.74,1.71c0.22,0.5,0.35,0.96,0.46,1.33
							c0.22,0.74,0.33,1.15,0.3,1.16c-0.1,0.03-0.54-1.62-1.79-4.06c-0.32-0.6-0.67-1.27-1.12-1.93c-0.41-0.69-0.93-1.37-1.48-2.09
							c-1.13-1.4-2.51-2.84-4.14-4.14c-1.64-1.28-3.36-2.28-4.98-3.07c-0.82-0.37-1.6-0.72-2.37-0.97c-0.75-0.3-1.47-0.48-2.13-0.67
							C61.84,454.91,60.13,454.8,60.14,454.7z"/>
					</g>
				</g>
			</g>
		</g>
	</g>
</g>
<g id="Starts">
	<g>
		<g>
			<g>
				<path d="M202.46,151.69l-0.33,1.06c-0.15,0.47-0.51,0.84-0.98,0.99l-1.06,0.33l1.07,0.36c0.44,0.15,0.78,0.49,0.93,0.93
					l0.38,1.08l0.42-1.13c0.16-0.43,0.5-0.76,0.94-0.9l1.02-0.34l-1.01-0.34c-0.42-0.14-0.75-0.46-0.92-0.88L202.46,151.69z"/>
			</g>
		</g>
		<g>
			<g>
				<path d="M236.58,103.46l-0.33,1.06c-0.15,0.47-0.51,0.84-0.98,0.99l-1.06,0.33l1.07,0.36c0.44,0.15,0.78,0.49,0.93,0.93
					l0.38,1.08l0.42-1.13c0.16-0.43,0.5-0.76,0.94-0.9l1.02-0.34l-1.01-0.34c-0.42-0.14-0.75-0.46-0.92-0.88L236.58,103.46z"/>
			</g>
		</g>
		<g>
			<g>
				<path d="M382.09,263.73l-0.33,1.06c-0.15,0.47-0.51,0.84-0.98,0.99l-1.06,0.33l1.07,0.36c0.44,0.15,0.78,0.49,0.93,0.93
					l0.38,1.08l0.42-1.13c0.16-0.43,0.5-0.76,0.94-0.9l1.02-0.34l-1.01-0.34c-0.42-0.14-0.75-0.46-0.92-0.88L382.09,263.73z"/>
			</g>
		</g>
		<g>
			<g>
				<path d="M376.23,188.79l-0.33,1.06c-0.15,0.47-0.51,0.84-0.98,0.99l-1.06,0.33l1.07,0.36c0.44,0.15,0.78,0.49,0.93,0.93
					l0.38,1.08l0.42-1.13c0.16-0.43,0.5-0.76,0.94-0.9l1.02-0.34l-1.01-0.34c-0.42-0.14-0.76-0.46-0.92-0.88L376.23,188.79z"/>
			</g>
		</g>
		<g>
			<g>
				<path d="M212.16,110.13l-1.35,4.34c-0.6,1.93-2.11,3.44-4.04,4.04l-4.35,1.36l4.37,1.49c1.79,0.61,3.21,2.02,3.83,3.81
					l1.54,4.44l1.71-4.64c0.65-1.76,2.06-3.12,3.84-3.71l4.19-1.39l-4.13-1.4c-1.72-0.58-3.1-1.9-3.76-3.59L212.16,110.13z"/>
			</g>
		</g>
		<g>
			<g>
				<path d="M353.13,220.1l-1.35,4.34c-0.6,1.93-2.11,3.44-4.04,4.04l-4.35,1.36l4.37,1.49c1.79,0.61,3.21,2.01,3.83,3.81l1.54,4.44
					l1.71-4.64c0.65-1.76,2.06-3.12,3.84-3.71l4.19-1.39l-4.13-1.4c-1.72-0.58-3.1-1.9-3.76-3.59L353.13,220.1z"/>
			</g>
		</g>
		<g>
			<g>
				<path d="M134.26,104.19l-0.56,1.79c-0.25,0.8-0.87,1.42-1.67,1.67l-1.8,0.56l1.8,0.61c0.74,0.25,1.32,0.83,1.58,1.57l0.64,1.83
					l0.71-1.92c0.27-0.72,0.85-1.29,1.58-1.53l1.73-0.57l-1.71-0.58c-0.71-0.24-1.28-0.78-1.55-1.48L134.26,104.19z"/>
			</g>
		</g>
		<g>
			<g>
				<path d="M334.12,253.41l-0.56,1.79c-0.25,0.8-0.87,1.42-1.67,1.67l-1.8,0.56l1.8,0.61c0.74,0.25,1.32,0.83,1.58,1.57l0.64,1.83
					l0.71-1.92c0.27-0.72,0.85-1.29,1.58-1.53l1.73-0.57l-1.71-0.58c-0.71-0.24-1.28-0.78-1.55-1.48L334.12,253.41z"/>
			</g>
		</g>
	</g>
</g>
<g id="Floor">
	<g>
		<g>
			<path class="st10" d="M481.11,475.2c0,0.14-103.48,0.26-231.1,0.26c-127.66,0-231.12-0.12-231.12-0.26s103.46-0.26,231.12-0.26
				C377.63,474.94,481.11,475.06,481.11,475.2z"/>
		</g>
	</g>
</g>
<g id="Speech_Bubble">
</g>
</svg>
