<?xml version="1.0" encoding="utf-8"?>
<!-- Generator: Adobe Illustrator 25.3.0, SVG Export Plug-In . SVG Version: 6.00 Build 0)  -->
<svg version="1.1" xmlns="http://www.w3.org/2000/svg" xmlns:xlink="http://www.w3.org/1999/xlink" x="0px" y="0px"
	 viewBox="0 0 500 500" style="enable-background:new 0 0 500 500;" xml:space="preserve">
<style type="text/css">
	.st0{opacity:0.2;fill:#FBF9F9;}
	.st1{fill:#FBF9F9;}
	.st2{clip-path:url(#SVGID_2_);}
	.st3{fill:#EF9B7B;}
	.st4{opacity:0.74;clip-path:url(#SVGID_4_);fill:#D98868;}
	.st5{fill:#86554E;}
	.st6{fill:#481C0A;}
	.st7{fill:#BA6A4B;}
	.st8{opacity:0.4196;fill:#FC6859;}
	.st9{clip-path:url(#SVGID_6_);fill:#FC6859;}
	.st10{clip-path:url(#SVGID_6_);fill:#FCF9F9;}
	.st11{fill:#633933;}
	.st12{opacity:0.74;clip-path:url(#SVGID_8_);fill:#D98868;}
	.st13{fill:#FC6859;}
	.st14{clip-path:url(#SVGID_10_);}
	.st15{opacity:0.502;fill:#CF4E40;}
	.st16{fill:#CF4E40;}
	.st17{opacity:0.2;fill:#5E2B17;}
	.st18{opacity:0.74;clip-path:url(#SVGID_12_);fill:#D98868;}
	.st19{opacity:0.74;clip-path:url(#SVGID_14_);fill:#D98868;}
	.st20{clip-path:url(#SVGID_16_);}
	.st21{opacity:0.74;fill:#D98868;}
</style>
<g id="BACKGROUND">
</g>
<g id="OBJECTS">
	<circle class="st0" cx="250" cy="233.99" r="189.36"/>
	<g>
		<path class="st1" d="M438.82,364.41L438.82,364.41c-0.62,0.59-1.56,0.68-2.3,0.24c-1.1-0.65-1.25-1.19-1.19-2.44
			c0.06-1.28,0.7-1.89,1.59-2.22c1.12-0.42,2.38,0.38,2.48,1.57c0,0.02,0,0.03,0,0.05c0.01,0.1,0.03,0.2,0.05,0.3
			C439.25,362.72,439.03,363.59,438.82,364.41z"/>
		<path class="st1" d="M238.41,28.69c-0.01,0.01-0.01,0.01-0.02,0.02c-0.61,0.58-1.54,0.67-2.27,0.24c-1.12-0.66-1.26-1.2-1.2-2.45
			c0.06-1.29,0.71-1.9,1.61-2.23c1.11-0.41,2.35,0.38,2.45,1.56c0,0.02,0,0.05,0.01,0.08c0.01,0.1,0.03,0.21,0.06,0.31
			C238.84,27.01,238.62,27.88,238.41,28.69z"/>
		<path class="st1" d="M39.78,128.8c-0.69,0.65-1.38,1.3-2,1.89c-2.33-1.06-2.6-1.47-2.52-3.11c0.09-1.82,1.33-2.28,2.82-2.53
			c0.84,0.36,1.18,1.02,1.25,1.93c0.03,0.45,0.29,0.88,0.45,1.32C39.78,128.47,39.78,128.63,39.78,128.8z"/>
		<path class="st1" d="M34.78,354.8c-0.69,0.65-1.38,1.3-2,1.89c-2.33-1.06-2.6-1.47-2.52-3.11c0.09-1.82,1.33-2.28,2.82-2.53
			c0.84,0.36,1.18,1.02,1.25,1.93c0.03,0.45,0.29,0.88,0.45,1.32C34.78,354.47,34.78,354.63,34.78,354.8z"/>
		<path class="st1" d="M432.07,51.57c-1.18,0.87-1.25,0.89-1.97-0.01c-1.56-1.97-3.08-3.96-4.62-5.94c-0.08-0.1-0.17-0.2-0.35-0.42
			c-2.88,1.42-5.76,2.83-8.54,4.2c-0.75-0.48-0.45-0.89-0.19-1.28c1.19-1.75,2.39-3.49,3.58-5.24c0.18-0.27,0.35-0.54,0.58-0.89
			c-0.96-0.98-2.28-1.08-3.37-1.62c-1.05-0.53-2.47-0.46-3.16-1.93c3.26-0.53,6.4-0.66,9.62-0.62c1.37-2.93,2.04-6.08,3.97-8.83
			c1.27,1.31,1.35,2.92,1.69,4.41c0.43,1.92,0.79,3.86,1.18,5.75c2.47,1.06,5.2,0.48,7.78,1.82c-2.57,1.46-5.16,2.15-7.72,3.16
			C431.05,46.59,431.55,49.03,432.07,51.57z"/>
		<path class="st1" d="M346.31,117.01c0.12,0.48,0.35,0.99,0.37,1.51c0.13,2.95,1.75,4.85,4.25,6.14c0.52,0.27,1.25,0.28,1.23,1.11
			c-0.02,0.73-0.57,0.95-1.12,1.26c-2.08,1.16-3.34,2.99-4.02,5.24c-0.17,0.57-0.21,1.19-0.35,1.78c-0.09,0.38-0.27,0.73-0.38,1.02
			c-0.77,0.29-1.23,0.06-1.48-0.54c-0.22-0.56-0.46-1.13-0.55-1.72c-0.42-2.79-1.85-4.97-4.01-6.72c-0.79-0.64-0.83-1.17-0.09-1.87
			c0.33-0.31,0.73-0.53,1.12-0.77c1.07-0.65,1.91-1.47,2.33-2.69c0.33-0.95,0.69-1.9,1.06-2.83
			C345.02,117.06,345.09,117.04,346.31,117.01z"/>
		<path class="st1" d="M66.44,418.95c-0.62,0.68-0.82,1.12-1.17,1.24c-3.42,1.16-5.2,3.47-6.31,6.21c-0.44,1.09-1.15,1.84-2.45,2.17
			c-1.32-0.4-1.26-1.45-1.39-2.23c-0.37-2.23-1.63-3.82-4.1-4.74c-0.12-0.05-0.23-0.13-0.33-0.22c-0.09-0.09-0.16-0.19-0.25-0.31
			c0.1-0.74,0.63-1.2,1.36-1.64c1.66-1.01,3.1-2.23,3.71-3.93c0.25-0.7,0.37-1.47,0.35-2.2c-0.02-0.69,0.13-1.26,0.73-1.73
			c1.89,0.06,2.09,0.14,2.62,1.48c0.56,1.4,1.15,2.75,2.47,3.82C62.89,417.86,63.97,418.96,66.44,418.95z"/>
		<path class="st1" d="M38.26,258.88c0.17,0.33,5.53,2.02,5.64,2.07c-1.81,0.77-3.52,1.5-5.17,2.2c0.17,1.53,0.61,4.84,0.45,5.79
			c-0.6-0.23-4.63-4.97-4.68-4.94c-1.87,0.91-6.55,2.84-6.55,2.84s2-3.35,3.25-5.23c-0.03-0.14-4.31-2.21-4.3-2.64
			c2.33-0.26,4.43-0.5,6.66-0.75c0.79-1.82,1.64-3.76,2.52-5.78C36.13,252.58,37.2,255.53,38.26,258.88z"/>
		<path class="st1" d="M396.19,237.25c0.82-2.1,1.94-3.96,4.38-4.62c1.76-0.48,3.76,0.29,4.96,1.96c0.81,1.13,0.87,3.46-0.13,4.65
			c-0.78,0.93-0.88,2.27-2.19,2.92c-1.64,0.82-2.66,0.96-4.13-0.07C397.58,241.03,396.94,239.97,396.19,237.25z"/>
		<path class="st1" d="M95.3,459.54c0.89-0.97,4.9-1.83,6.27,1.3c0.85,1.92,1.26,7.43-4.28,6.1
			C92.86,465.87,93.5,461.51,95.3,459.54z"/>
		<path class="st1" d="M116.34,231.98v-0.11c0-3.27,4.38-4.77,6.28-2.07c0.01,0.02,0.03,0.04,0.04,0.06
			c0.92,1.34,0.91,2.65-0.04,3.86c-1.2,1.53-2.38,2.02-4,1.47c-0.06-0.02-0.11-0.04-0.17-0.06
			C117.15,234.62,116.34,233.35,116.34,231.98z"/>
		<path class="st1" d="M463.35,437.95l0.22-0.41c0.58-1.08,1.93-1.58,3.01-1.01c0.6,0.32,0.77,0.78,0.78,1.57
			c0.01,1.5-0.79,2.58-2.16,2.89c-0.94,0.21-1.3,0.16-1.83-0.8C462.98,439.5,462.97,438.65,463.35,437.95z"/>
		<path class="st1" d="M108.41,131.69l0.02,0.02c0.49,0.58,0.64,1.4,0.33,2.1c-0.43,0.98-1.17,1.49-2.29,1.54
			c-0.91,0.04-1.77-0.23-2.17-1.26c-0.4-1.02-0.01-1.81,0.74-2.38c0.28-0.21,0.6-0.38,0.94-0.55
			C106.81,130.76,107.82,130.99,108.41,131.69z"/>
		<path class="st1" d="M331.31,35.99l-0.02-0.02c-0.53-0.49-0.75-1.24-0.57-1.94c0.1-0.4,0.21-0.79,0.38-1.14
			c0.65-1.37,2.61-1.43,3.41-0.14c0.28,0.45,0.42,1,0.34,1.69c-0.11,0.96-0.63,1.51-1.37,1.89
			C332.76,36.69,331.89,36.54,331.31,35.99z"/>
		<path class="st1" d="M333.15,198.37c1.07-0.06,1.57,0.1,2.05,0.81c0.57,0.83,0.38,1.97-0.35,2.66c-0.01,0.01-0.01,0.01-0.02,0.02
			c-0.54,0.51-1.31,0.69-2.02,0.5c-2-0.53-2.3-1.15-1.42-2.84C331.73,198.86,332.4,198.42,333.15,198.37z"/>
		<path class="st1" d="M454.14,132.79c-0.84,0-1.61-0.54-1.82-1.36c-0.35-1.34-0.01-2.41,0.93-2.91c1-0.54,1.84-0.27,2.63,0.91
			c0.37,0.56,0.44,1.27,0.17,1.89c-0.05,0.12-0.11,0.24-0.17,0.36c-0.02,0.05-0.05,0.1-0.08,0.15
			C455.46,132.43,454.82,132.79,454.14,132.79L454.14,132.79z"/>
		<path class="st1" d="M458.54,249.19c-0.54-0.89-0.49-2.1,0.33-2.73c0.45-0.35,1.01-0.46,1.69-0.26c0.86,0.25,1.76,0.61,1.92,1.71
			c0.11,0.77-0.03,1.4-0.46,1.9c-0.55,0.64-1.51,0.82-2.28,0.47C459.24,250.06,458.84,249.69,458.54,249.19z"/>
		<path class="st1" d="M90.46,47.1c-0.01,0.01-0.02,0.02-0.03,0.03c-1.26,1.24-3.24,0.48-3.51-1.27c-0.11-0.72,0.2-1.22,0.93-1.68
			c0.92-0.58,1.75-0.52,2.55,0.23C91.16,45.13,91.2,46.36,90.46,47.1z"/>
	</g>
	<g>
		<defs>
			<rect id="SVGID_1_" y="2" width="500" height="500"/>
		</defs>
		<clipPath id="SVGID_2_">
			<use xlink:href="#SVGID_1_"  style="overflow:visible;"/>
		</clipPath>
		<g class="st2">
			<g>
				<g>
					<path class="st3" d="M215.41,225.47c1.28,5.18-1.3,14.21-4.88,18.17c-6.33,7-47.72,14.92-47.72,14.92l95.49,59.34
						c0,0,81.26-35.5,94.84-49.64c-5.35-1.55-55.27-13.46-58.46-18.12c-3.18-4.66-18.12-33.43-17.29-39.01L215.41,225.47z"/>
					<g>
						<defs>
							<path id="SVGID_3_" d="M211.95,224.75c1.28,5.18,1.39,14.87-1.45,19.39c-5.46,8.67-47.68,14.42-47.68,14.42l95.49,59.34
								c0,0,82.01-35.46,95.59-49.59c-5.5-1.25-56.02-13.51-59.2-18.17c-3.18-4.66-18.19-32.44-17.35-38.02L211.95,224.75z"/>
						</defs>
						<clipPath id="SVGID_4_">
							<use xlink:href="#SVGID_3_"  style="overflow:visible;"/>
						</clipPath>
						<path class="st4" d="M295.21,235.01c-4.98,11.53-69.18,24.78-89,3.83c5.86-3.2,54.43-21.05,69.67-29.04
							C279.43,216.55,283.24,224.25,295.21,235.01z"/>
						<path class="st4" d="M308.89,252.61c-23.43,28.2-99.13,37.07-135.66-9.62c11.34-5.93,51.93,47.93,128.2,8.09
							C301.36,251.38,305.44,251.14,308.89,252.61z"/>
					</g>
				</g>
				<g>
					<g>
						<path class="st3" d="M165.29,168.9c-11.65-45.19,4.91-86.46,42.34-96.12s72.86,18.22,84.51,63.41
							c11.65,45.19,1.85,91.01-46.9,102.46C197.26,249.91,176.94,214.09,165.29,168.9z"/>
						<path class="st3" d="M164.67,157.13c-6.51,0.24-12.56,5.19-14.08,11.53c-1.13,4.72,0.06,9.67,1.55,14.29
							c1.86,5.79,4.34,11.65,8.91,15.67c4.57,4.02,11.73,5.65,16.84,2.34L164.67,157.13z"/>
						<path class="st3" d="M287.43,127.49c4.67-1.28,9.86,0.42,13.41,3.72c3.55,3.3,5.57,8.01,6.3,12.79
							c0.73,4.79,0.26,9.69-0.57,14.46c-0.55,3.13-1.28,6.31-3.01,8.97c-1.73,2.66-4.64,4.75-7.82,4.7L287.43,127.49z"/>
					</g>
					<g>
						<path class="st5" d="M177.79,152.49c-1.57,0.92-3.42-0.7-2.86-2.44c1.38-4.35,3.29-8.56,6.04-12.19
							c3.3-4.36,7.88-7.88,13.22-9.21c0.68-0.17,1.41-0.12,2.03,0.2c1.59,0.81,1.28,2.36,0.46,3.28c-0.53,0.59-1.24,0.98-1.92,1.38
							c-5.88,3.46-10.74,8.62-13.86,14.68c-0.7,1.37-1.35,2.82-2.49,3.84C178.23,152.21,178.02,152.36,177.79,152.49z"/>
						<path class="st5" d="M267.5,133.47c1.82,0.02,2.61-2.31,1.27-3.54c-3.37-3.08-7.12-5.78-11.32-7.56
							c-5.04-2.14-10.76-2.9-16.05-1.4c-0.67,0.19-1.28,0.6-1.66,1.18c-0.97,1.49,0.06,2.68,1.23,3.07
							c0.75,0.25,1.56,0.24,2.35,0.24c6.82,0.07,13.61,2.12,19.33,5.83c1.29,0.83,2.57,1.77,4.07,2.09
							C266.99,133.44,267.25,133.47,267.5,133.47z"/>
						<g>
							<path class="st5" d="M232.14,180.9"/>
						</g>
						
							<ellipse transform="matrix(0.9683 -0.2497 0.2497 0.9683 -33.486 53.1297)" class="st6" cx="192.68" cy="158.56" rx="4.62" ry="5.63"/>
						<path class="st6" d="M249.34,146.01c-0.78-3.01,0.6-5.96,3.07-6.6c2.47-0.64,5.11,1.28,5.88,4.29c0.78,3.01-0.6,5.96-3.07,6.6
							C252.75,150.94,250.12,149.01,249.34,146.01z"/>
						<g>
							<path class="st7" d="M222.93,132.94c0.59,9.2-1.26,18.27-2.4,27.32c0,0-0.46,3.37-0.46,3.37c-0.55,6.08,4.6,9.05,10.2,8.11
								c2.18-0.21,4.3-0.97,6.43-1.68l0.48,1.15c-2.13,0.9-4.31,1.77-6.67,2.14c-4.98,0.98-10.59-0.79-12.05-6.2
								c-0.76-2.33-0.21-4.81,0.1-7.18c0,0,2.04-13.51,2.04-13.51c0.64-4.49,1.2-8.99,1.19-13.49L222.93,132.94L222.93,132.94z"/>
						</g>
						<g>
							<path class="st7" d="M296.22,172.65c-1.23-15.12-3.76-30.09-7.5-44.79c0,0,1.2-0.35,1.2-0.35
								c3.65,10.88,5.86,22.22,6.91,33.64c0.33,3.81,0.54,7.63,0.54,11.45L296.22,172.65L296.22,172.65z"/>
						</g>
						<g>
							<path class="st7" d="M164.31,157.38c3.29,15.12,7.42,30.01,12.3,44.69c0,0-1.17,0.43-1.17,0.43
								c-3.01-7.18-5.43-14.59-7.5-22.09c-2.01-7.52-3.69-15.13-4.75-22.84L164.31,157.38L164.31,157.38z"/>
						</g>
						<g>
							<path class="st7" d="M212.75,237.74c17.8,3.84,36.76,1.61,52.51-7.82c5.24-3.01,10.13-6.63,14.79-10.54l0.83,0.93
								c-4.49,4.21-9.39,8.01-14.69,11.21c-11.9,7.26-26.11,10.75-40.02,9.6c-4.62-0.28-9.18-1.19-13.68-2.26L212.75,237.74
								L212.75,237.74z"/>
						</g>
						
							<ellipse transform="matrix(0.9683 -0.2497 0.2497 0.9683 -32.9936 71.6553)" class="st8" cx="265.94" cy="165.87" rx="11.75" ry="9"/>
						
							<ellipse transform="matrix(0.9683 -0.2497 0.2497 0.9683 -39.856 53.9296)" class="st8" cx="192.64" cy="184.06" rx="11.75" ry="9"/>
						<g>
							<path class="st7" d="M162.74,168.41c-2.04,4.49-3.2,9.27-3.54,14.18c0,0-1.24,0.06-1.24,0.06c-0.43-2.58-0.22-5.26,0.43-7.8
								c0.66-2.53,1.77-4.97,3.38-7.03C161.76,167.82,162.74,168.41,162.74,168.41L162.74,168.41z"/>
						</g>
						<g>
							<path class="st7" d="M160.36,174.37c1.33,3.99,3.51,7.38,6.5,10.32c0,0-0.74,1-0.74,1c-1.99-1.08-3.63-2.77-4.83-4.7
								c-1.19-1.94-1.96-4.16-2.05-6.41L160.36,174.37L160.36,174.37z"/>
						</g>
						<g>
							<path class="st7" d="M298.74,136.68c3.2,2.75,5.3,6.91,5.52,11.14l-1.22,0.23c-0.68-1.89-1.36-3.71-2.22-5.47
								c-0.84-1.77-1.85-3.44-2.93-5.14L298.74,136.68L298.74,136.68z"/>
						</g>
						<g>
							<path class="st7" d="M296.93,153.05c1.53-3.78,2.73-7.48,3.83-11.41c0,0,1.23,0.16,1.23,0.16c0.04,2.12-0.39,4.23-1.08,6.24
								c-0.7,2-1.67,3.92-2.99,5.58L296.93,153.05L296.93,153.05z"/>
						</g>
					</g>
					<path class="st6" d="M257.91,195.39c-9.96,1.78-22.82,5.87-37.73,13.55c-0.36,0.19-0.8,0-0.82-0.41
						c-0.26-4.08-0.46-8.2,0.23-12.33c0.75-4.45,2.62-8.98,6.08-12.44c3.47-3.46,8.74-5.81,13.36-4.9
						C249.21,180.86,258.34,195.31,257.91,195.39z"/>
					<g>
						<defs>
							<path id="SVGID_5_" d="M257.91,195.39c-9.96,1.78-22.82,5.87-37.73,13.55c-0.36,0.19-0.8,0-0.82-0.41
								c-0.26-4.08-0.46-8.2,0.23-12.33c0.75-4.45,2.62-8.98,6.08-12.44c3.47-3.46,8.74-5.81,13.36-4.9
								C249.21,180.86,258.34,195.31,257.91,195.39z"/>
						</defs>
						<clipPath id="SVGID_6_">
							<use xlink:href="#SVGID_5_"  style="overflow:visible;"/>
						</clipPath>
						<path class="st9" d="M220.35,209.14c3.07-7.17,5.91-10.33,8.25-11.87c2.34-1.54,5.47-2.09,8.35-0.61
							c4.15-7.03,20.73-1.87,20.93-1.28c0.17,0.47-12.2,11.8-17.76,12.77C234.58,209.11,225.91,212.97,220.35,209.14z"/>
						<path class="st10" d="M211.29,189.6c15.62,1.64,31.05-5.06,40.16-17.44c-1.16-1.16-2.01-2.65-2.43-4.23
							c-11.01,10.01-25.5,15.81-40.67,16.3C209.67,185.85,211,187.48,211.29,189.6z"/>
					</g>
					<g>
						<path class="st5" d="M269.13,99.75c6.63,14.94,13.25,29.88,19.88,44.82c1.41,3.17,2.92,6.49,5.69,8.58
							c-1.23-19.07-6.69-37.85-15.88-54.6c-2.93-5.35-6.58-10.79-12.21-13.14c-1.06-0.44-2.21-0.77-3.35-0.6s-2.24,0.95-2.51,2.06
							c-0.29,1.21,0.42,2.41,1.1,3.46C263.63,93.06,266.92,94.77,269.13,99.75z"/>
						<path class="st5" d="M163.53,127.74c2.61,16.13,5.22,32.27,7.83,48.4c0.55,3.43,1.1,7.03-0.08,10.3
							c-9.39-16.64-15.08-35.36-16.53-54.41c-0.46-6.08-0.38-12.63,3.05-17.67c0.65-0.95,1.44-1.85,2.48-2.33
							c1.05-0.48,2.39-0.43,3.23,0.36c0.91,0.85,0.97,2.25,0.97,3.49C164.48,119.13,162.66,122.37,163.53,127.74z"/>
						<path class="st5" d="M159.53,118.15c6.54,4.84,15.75,4.33,23.33,1.38c7.58-2.95,14.15-7.97,21.28-11.88
							c9.07-4.97,19.13-8.13,29.41-9.25c8.21-0.9,16.56-0.51,24.67-2.08c8.11-1.57,16.3-5.56,20.28-12.79
							c-16.26-1.91-30.43-12.44-46.58-15.11c-11.13-1.84-22.59,0.17-33.34,3.61c-16.81,5.38-33.26,15.06-41.52,30.65
							c-1.56,2.94-2.81,6.14-2.86,9.46S155.49,118.95,159.53,118.15z"/>
						<g>
							<g>
								<path class="st11" d="M163.33,121.15c-2.81,0.18-5.76-1.08-7.51-3.31l0.8-0.95c1.17,0.58,2.24,1.16,3.37,1.68
									c1.12,0.53,2.28,0.96,3.49,1.45L163.33,121.15L163.33,121.15z"/>
							</g>
							<g>
								<path class="st11" d="M273.46,89.97c-1.88,2.91-5.39,4.82-8.86,4.75c0,0-0.18-1.23-0.18-1.23c1.5-0.54,2.92-1.08,4.28-1.79
									c1.37-0.7,2.63-1.55,3.93-2.49L273.46,89.97L273.46,89.97z"/>
							</g>
							<g>
								<path class="st11" d="M173.14,107.49c14.79,2.04,25.3-11.4,38.86-14.73c10.55-2.63,21.29,1.11,31.86-0.28
									c3.42-0.42,6.79-1.41,9.67-3.28l0.7,1.03c-3.01,2.11-6.57,3.29-10.14,3.86c-10.51,1.7-21.26-1.94-31.62,0.6
									c-13.5,3.41-24.61,16.78-39.55,13.92C172.93,108.61,173.14,107.49,173.14,107.49L173.14,107.49z"/>
							</g>
							<g>
								<path class="st11" d="M247.12,83.55c-14.85,4.57-32.86-3.59-45.67,7.42c0,0-0.87-0.89-0.87-0.89
									c8.96-9.19,23-7.16,34.59-6.76c3.93,0.1,7.85-0.04,11.66-0.88L247.12,83.55L247.12,83.55z"/>
							</g>
							<g>
								<path class="st11" d="M179.24,93.87c11.06-9.97,24.98-16.86,39.63-19.52c0,0,0.27,1.22,0.27,1.22
									c-10.62,2.8-20.84,7.06-30.14,12.91c-3.11,1.93-6.11,4.04-9.03,6.27L179.24,93.87L179.24,93.87z"/>
							</g>
						</g>
					</g>
				</g>
			</g>
			<g>
				<g>
					<path class="st3" d="M410.64,372.79c5.29,51.43,7.73,103.23,7.29,155.03c0,0-50.95-3.61-51.34-4.33
						c1.3-0.97-5.74-103.48-9.88-141.97c11.46-4.32,29.75-7.94,41.77-9.65C403.15,371.21,408.62,371.05,410.64,372.79z"/>
					<g>
						<defs>
							<path id="SVGID_7_" d="M410.64,372.79c5.29,51.43,7.73,103.23,7.29,155.03c0,0-50.95-3.61-51.34-4.33
								c1.3-0.97-5.74-103.48-9.88-141.97c11.46-4.32,29.75-7.94,41.77-9.65C403.15,371.21,408.62,371.05,410.64,372.79z"/>
						</defs>
						<clipPath id="SVGID_8_">
							<use xlink:href="#SVGID_7_"  style="overflow:visible;"/>
						</clipPath>
						<path class="st12" d="M411.15,382.67c-18.17-0.71-36.52,6.66-49.26,19.8c0.8-7.17,1.61-14.33,2.41-21.5
							c12.5-2.7,25.2-4.5,37.95-5.36c2.8-0.19,5.66-0.33,8.37,0.4C413.33,376.74,415.91,378.5,411.15,382.67z"/>
					</g>
					<path class="st13" d="M417.86,381.48c-1.33-31.06-9.88-61.66-24.66-88.28c-3.24-5.84-6.4-9.63-10.85-14.46
						c-5.15-5.59-15.81-6.98-15.81-6.98s-2.73,3.12-5.94,7.08c-6.35,7.84-9.76,18.01-11.23,28.24c-1.47,10.24-1.13,20.64-0.78,30.97
						c0.64,18.94,1.27,37.88,3.09,57.07C369.97,381.01,393.67,375.32,417.86,381.48z"/>
				</g>
				<g>
					<path class="st13" d="M186,248.19c15.6,13.35,34.86,21.08,54.89,21.76c20.03,0.68,39.55-5.04,57.13-17.85
						c21,6.21,42.72,11.73,63.72,17.94c5.25,1.55,10.82,3.31,14.37,7.73c6.12,7.62,6.71,23.95,3.82,33.6
						c-29.06,97.04-7.93,148.36-25.37,210.6c0,0-203.4-14.07-202.08-14.11c-2.8-75.8-4.52-151.66-5.16-227.55
						c-0.05-5.57-0.67-19.46,2.49-23.91C149.93,256.24,181.53,249.68,186,248.19z"/>
					<g>
						<defs>
							<path id="SVGID_9_" d="M186,248.19c15.6,13.35,34.86,21.08,54.89,21.76c20.03,0.68,39.55-5.04,57.13-17.85
								c21,6.21,42.72,11.73,63.72,17.94c5.25,1.55,10.82,3.31,14.37,7.73c6.12,7.62,7.15,25.96,4.15,35.58
								c-30.71,98.55-7.04,139-25.7,208.62c0,0-203.4-14.07-202.08-14.11c-2.8-75.8-4.52-151.66-5.16-227.55
								c-0.05-5.57-0.67-19.46,2.49-23.91C149.93,256.24,181.53,249.68,186,248.19z"/>
						</defs>
						<clipPath id="SVGID_10_">
							<use xlink:href="#SVGID_9_"  style="overflow:visible;"/>
						</clipPath>
						<g class="st14">
							<path class="st15" d="M205.83,326.68c10.37,22.81,17.87,41.37,35.65,58.08c31.97,30.03,69.2,17.88,69.2,17.88
								s-3.04-0.97-10.84-3.31C261.69,387.9,227.5,362.15,205.83,326.68z"/>
							<path class="st15" d="M241.93,309.79c4.46,22.12,17.98,44.41,37.97,57c4.58,2.89,16.15,8.01,21.32,9.36
								c2.16,0.56,3.96,0.93,4.15,0.63C270.72,363.04,254.1,335.85,241.93,309.79z"/>
							<path class="st15" d="M379.47,316.77c-13.31,22.93-26.79,46.29-33.36,72.32c-10.74,42.54-2.06,88.11-10.51,131.22
								c6.69,1.35,13.37,2.7,20.06,4.05c12.44-44.88,5.94-78.88,8.91-118.32C366.78,376.57,368.61,343.76,379.47,316.77z"/>
							<g>
								<path class="st15" d="M266.77,475.17c-21.04-9.96-37.24-21.7-52.53-39.52c-23.76-27.71-32.91-65.06-38.77-95.57
									c-0.67-5.78-1.28-11.18-1.68-15.71c-0.74,1.44-25.59,50.55-25.36,49.84c-0.35,0.34-0.84-4.56,4.57,30.21
									c1.76,11.3,7.76,17.53,12.97,27.5c4.87,9.31,9.74,18.62,14.61,27.93c-2.43-16.46-4.87-33.11-3.56-49.75
									c0.7-8.95,2.49-17.83,2.4-26.81c-0.01-1.24-0.05-2.55-0.11-3.91c1.73,8.96,3.93,17.76,6.81,26.25
									c8.18,24.09,21,46.65,39.01,63.45c18,16.8,41.43,27.48,65.39,27.11c6.06-0.09,12.6-0.64,15.36-6.45
									C292.04,486.12,278.28,480.61,266.77,475.17z"/>
							</g>
						</g>
					</g>
					<g>
						<g>
							<path class="st16" d="M381.2,308.64c-1.61,13.49-5.59,26.57-9.05,39.66c-3.55,13.01-6.6,26.21-8.35,39.59l-1.24-0.13
								c0.61-6.7,1.58-13.6,2.93-20.17c3-15.52,9.03-33.77,12.61-49.19c0.79-3.28,1.4-6.59,1.98-9.91L381.2,308.64L381.2,308.64z"/>
						</g>
						<g>
							<path class="st16" d="M415.55,368.4c-17.1-2.9-34.94-0.33-50.56,7.19c0,0-0.58-1.11-0.58-1.11
								c11.55-6.53,25.02-9.55,38.26-9.01c4.42,0.19,8.82,0.77,13.1,1.81L415.55,368.4L415.55,368.4z"/>
						</g>
						<g>
							<path class="st16" d="M193.53,291.23c13.83,47.34,49.6,88.61,96.63,104.96c6.63,2.39,13.44,4.3,20.37,5.67l-0.23,1.22
								c-7.01-1.26-13.93-3.05-20.68-5.35c-40.77-13.85-73.65-46.54-90.18-86.03c-2.76-6.57-5.1-13.3-7-20.16L193.53,291.23
								L193.53,291.23z"/>
						</g>
						<g>
							<path class="st16" d="M172.8,306.29c7.42,66.91,16.46,120.19,77.73,158.93c17.41,10.89,36.63,18.66,56.32,24.42l-0.34,1.2
								c-19.9-5.5-39.33-13.18-56.91-24.12c-26.45-16.23-48.48-40.35-59.81-69.48c-7.78-19.2-11.77-39.67-14.62-60.1
								c-1.38-10.22-2.45-20.48-3.5-30.72L172.8,306.29L172.8,306.29z"/>
						</g>
						<g>
							<path class="st16" d="M172.36,347.14c11.16,51.84,26.79,102.97,46.72,152.11c0,0,4.03,9.83,4.03,9.83l-1.14,0.49l-4.22-9.77
								c-17.93-42.42-31.96-86.71-42.15-131.6c-1.14-5.14-3.33-15.65-4.35-20.83C171.25,347.37,172.36,347.14,172.36,347.14
								L172.36,347.14z"/>
						</g>
						<g>
							<path class="st16" d="M167.84,359.66c1.48,37.94,6.9,75.89,16.16,112.71c0,0,1.9,7.37,1.9,7.37l-1.2,0.34l-2.1-7.34
								c-8.78-31.83-13.91-64.83-15.49-97.8c-0.16-3.77-0.37-11.47-0.42-15.25L167.84,359.66L167.84,359.66z"/>
						</g>
						<g>
							<path class="st16" d="M231.17,296.77c8.18,7.84,13.97,17.72,19.59,27.43c15.66,29.18,30.76,41.02,60.74,54.31
								c5.1,2.29,10.27,4.44,15.45,6.58l-0.46,1.16c-5.23-2.02-10.46-4.05-15.64-6.23c-20.71-8.58-41.04-20.85-53.04-40.41
								c-6.15-9.41-10.99-19.56-17.13-28.93c-3.03-4.67-6.38-9.14-10.3-13.08L231.17,296.77L231.17,296.77z"/>
						</g>
						<g>
							<path class="st16" d="M174.73,253.8c33.02,29.38,84.64,36.39,122.84,13c5.42-3.18,10.55-6.88,15.31-11.02l0.83,0.93
								c-4.72,4.28-9.85,8.14-15.29,11.49c-33.63,20.8-76.07,18.48-109.3-1.91c-5.42-3.37-10.54-7.24-15.16-11.66L174.73,253.8
								L174.73,253.8z"/>
						</g>
					</g>
				</g>
				<g>
					<path class="st17" d="M205.55,235.66c4.83-3.69,7.4-9.77,8.37-15.83c0.97-6.06,0.56-12.24,0.57-18.38
						c0.03-11.61,0.64-22.33,3.76-33.51c1.64-5.88,3.8-13.49,2.26-19.4c-0.58-2.23-2.23-3.74-3.56-4.63
						c-1.1-0.74-1.83-1.94-1.95-3.28c-0.21-2.37-0.8-5.91-2.43-7.1c-3.51-2.56-4.13-0.03-6.31,0.5c-0.62,0.15-0.89-7.46-5.15-8.76
						c-5.7-1.74-8.75,10.36-13.15,14.08c-0.89,0.75-2.7-18.31-4.78-12.89c-11.59,30.19-12.03,77.67,1.94,97.1
						c2.28,3.16,4.88,6.16,8.13,8.27S200.48,235.07,205.55,235.66z"/>
					<g>
						<path class="st3" d="M117.34,289.76c-6.82,10.49-18.61,26.59-23.74,38.13c-3.81,8.57-6.23,17.06-7.53,26.42
							c-1.3,9.37,5.6,17.71,9.86,25.96c4.26,8.24,12.21,14.53,21.01,15.03c7.13,0.41,14.16-2.93,19.67-7.85
							c5.52-4.92,9.7-11.34,13.41-17.92c13.88-24.61,25.47-64.11,25.47-64.11S122.22,282.25,117.34,289.76z"/>
						<g>
							<defs>
								<path id="SVGID_11_" d="M117.34,289.76c-6.82,10.49-18.61,26.59-23.74,38.13c-3.81,8.57-6.23,17.06-7.53,26.42
									c-1.3,9.37,5.6,17.71,9.86,25.96c4.26,8.24,12.21,14.53,21.01,15.03c7.13,0.41,14.16-2.93,19.67-7.85
									c5.52-4.92,9.7-11.34,13.41-17.92c13.88-24.61,25.47-64.11,25.47-64.11S122.22,282.25,117.34,289.76z"/>
							</defs>
							<clipPath id="SVGID_12_">
								<use xlink:href="#SVGID_11_"  style="overflow:visible;"/>
							</clipPath>
							<path class="st18" d="M122.49,297.89c-11.7,10.61-23.4,21.22-35.1,31.83c5.95-10.44,11.9-20.87,17.86-31.31
								c1.74-3.06,3.66-6.28,6.77-7.86C115.14,288.97,119.78,289.97,122.49,297.89z"/>
						</g>
						<path class="st13" d="M164.46,334.82c8.26-15.37,12.54-33.15,12.22-50.82c-0.11-6.24-0.82-12.59-3.28-18.22
							c-2.46-5.64-9.75-12.2-9.75-12.2s-20.3,2.37-26.42,8.66c-16.64,17.09-18.13,23.71-26.24,36.58
							C126.58,305.17,147.9,318.87,164.46,334.82z"/>
						<path class="st3" d="M203.94,240.81c4.91-6.15,6.91-14.39,7.56-22.42c0.65-8.03,0.09-16.12,0.61-24.16
							c0.98-15.16,5.75-29.81,7.41-44.91c0.22-2.04,0.33-4.31-0.87-5.89c-1.19-1.59-4.16-1.47-4.74,0.6c0.68-2,1.37-4.02,1.59-6.12
							c0.28-2.74-0.31-5.7-2.5-7.44c-0.87-0.69-1.97-1.07-3.06-0.97c-2.87,0.26-4.28,3.22-5.46,5.81
							c-2.55,5.62-5.58,10.98-9.13,15.74c3.29-9.25,6.84-21.02,8.07-25.05c0.79-2.58-0.03-6.09-2.72-6.79
							c-0.63-0.17-1.31-0.11-1.93,0.12c-1.9,0.71-3.04,2.42-4.09,4.11c-7.63,12.26-13.28,25.93-16.98,39.46l8.07-39.27
							c0.29-1.41-0.21-2.93-1.35-3.68c-2.05-1.34-3.95,0.92-5.08,2.88c-4.29,7.41-8.32,15-12.49,23.29c-0.78,1.54-1.36,3.19-1.7,4.9
							c-2.31,11.42-3.77,22.99-4.24,34.09c-1.53-13.16-3.09-17.45-5.88-21.23c-0.7-0.95-2.58-2.15-3.79-0.76
							c-0.32,0.37-0.36,0.91-0.48,1.39c-1.41,5.53-1.29,6.92-1.7,15.44c-0.04,0.77,0.29,4.98,0.51,5.72
							c1.86,6.35,2.71,10.71,4.48,17.38c0.56,2.1,1.91,3.78,2.8,5.74c5.05,11.1,9.66,20.48,9.33,26.54
							C174.75,240.97,187.69,240.01,203.94,240.81z"/>
						<path class="st3" d="M120.1,395.35c4.93,0.82,10.56-2.8,14.96-5.77c3.55-2.4,6.65-5.46,9.21-9.03
							c30.96-43.12,47.15-95.64,62.87-147.14c0,0-37.9-7.29-38.12-7.13c-4.67,16.49-13.31,31.48-23.51,44.84
							c-10.2,13.36-21.98,25.23-33.73,37.03c-9.38,9.41-19.12,19.38-23.21,32.41c-3.61,11.5-2.19,24.66,3.77,34.89
							c5.42,9.3,14.34,18.43,23.05,19.25C116.97,394.84,118.53,395.09,120.1,395.35z"/>
						<g>
							<defs>
								<path id="SVGID_13_" d="M120.1,395.35c4.93,0.82,10.56-2.8,14.96-5.77c3.55-2.4,6.65-5.46,9.21-9.03
									c30.96-43.12,47.15-95.64,62.87-147.14c0,0-37.9-7.29-38.12-7.13c-4.67,16.49-13.31,31.48-23.51,44.84
									c-10.2,13.36-21.98,25.23-33.73,37.03c-9.38,9.41-19.12,19.38-23.21,32.41c-3.61,11.5-2.19,24.66,3.77,34.89
									c5.42,9.3,14.34,18.43,23.05,19.25C116.97,394.84,118.53,395.09,120.1,395.35z"/>
							</defs>
							<clipPath id="SVGID_14_">
								<use xlink:href="#SVGID_13_"  style="overflow:visible;"/>
							</clipPath>
							<path class="st19" d="M82.12,338.12c3.76,15.24,15.06,28.36,29.47,34.22c14.41,5.86,31.56,4.31,44.73-4.04
								c-3.45,8.18-7.62,16.21-13.74,22.6c-6.12,6.39-14.44,11.01-23.23,11.12c-12.94,0.16-24.4-9.54-30.33-21.16
								C83.09,369.23,81.61,355.87,82.12,338.12z"/>
						</g>
						<g>
							<defs>
								<path id="SVGID_15_" d="M203.94,240.81c4.91-6.15,6.91-14.39,7.56-22.42c0.65-8.03,0.09-16.12,0.61-24.16
									c0.98-15.16,5.75-29.81,7.41-44.91c0.22-2.04,0.33-4.31-0.87-5.89c-1.19-1.59-4.16-1.47-4.74,0.6
									c0.68-2,1.37-4.02,1.59-6.12c0.28-2.74-0.31-5.7-2.5-7.44c-0.87-0.69-1.97-1.07-3.06-0.97c-2.87,0.26-4.28,3.22-5.46,5.81
									c-2.55,5.62-5.58,10.98-9.13,15.74c3.29-9.25,6.84-21.02,8.07-25.05c0.79-2.58-0.03-6.09-2.72-6.79
									c-0.63-0.17-1.31-0.11-1.93,0.12c-1.9,0.71-3.04,2.42-4.09,4.11c-7.63,12.26-13.28,25.93-16.98,39.46l8.07-39.27
									c0.29-1.41-0.21-2.93-1.35-3.68c-2.05-1.34-3.95,0.92-5.08,2.88c-4.29,7.41-8.32,15-12.49,23.29
									c-0.78,1.54-1.36,3.19-1.7,4.9c-2.31,11.42-3.77,22.99-4.24,34.09c-1.53-13.16-3.09-17.45-5.88-21.23
									c-0.7-0.95-2.58-2.15-3.79-0.76c-0.32,0.37-0.36,0.91-0.48,1.39c-1.41,5.53-1.29,6.92-1.7,15.44
									c-0.04,0.77,0.29,4.98,0.51,5.72c1.86,6.35,2.71,10.71,4.48,17.38c0.56,2.1,1.91,3.78,2.8,5.74
									c5.05,11.1,9.66,20.48,9.33,26.54C174.75,240.97,187.69,240.01,203.94,240.81z"/>
							</defs>
							<clipPath id="SVGID_16_">
								<use xlink:href="#SVGID_15_"  style="overflow:visible;"/>
							</clipPath>
							<g class="st20">
								<path class="st21" d="M203.02,125.04c-4.62,11.26-9.25,22.52-13.72,33.84c-0.95,2.4-1.89,4.82-2.28,7.37
									c-0.38,2.55-0.16,5.27,1.11,7.5C190.89,157.15,200.98,142.35,203.02,125.04z"/>
								<path class="st21" d="M214.17,132.7c0.44,3.37-0.5,6.79-1.92,9.86c-1.42,3.08-3.32,5.9-4.96,8.87
									c-4.89,8.84-7.45,18.98-7.34,29.11c1.99-8.85,5.02-17.45,8.99-25.59c1.72-3.52,3.63-6.97,4.82-10.71
									C214.95,140.5,215.37,136.38,214.17,132.7z"/>
								<path class="st21" d="M218.18,144.6c1.53,4.91,0.69,10.27-0.88,15.17c-1.58,4.9-3.87,9.54-5.34,14.47
									c-2.45,8.24-2.49,17.2-0.11,25.46c-0.86-7.59,1.06-11.07,2.3-21.49c0.89-7.45,3.83-15.16,5.37-22.5
									C220.38,151.61,220.78,146.86,218.18,144.6z"/>
								<path class="st21" d="M183.75,120.84c-0.52,8.05-2.99,15.82-5,23.62c-2.01,7.81-3.59,15.94-2.31,23.9
									c3.04-14.24,6.09-28.48,9.13-42.73c0.22-1.01,0.43-2.05,0.22-3.06C185.59,121.57,184.84,120.6,183.75,120.84z"/>
								<path class="st21" d="M158.67,195.8c-1.09-8.26-1.32-16.63-0.69-24.93c2.02,3.85,2.71,8.31,2.63,12.68
									C160.53,187.9,159.73,192.22,158.67,195.8z"/>
							</g>
						</g>
						<g>
							<g>
								<g>
									<path class="st7" d="M206.57,235.77c6.44-15.51,3.54-32.34,5.14-48.69c0.88-8.35,3.53-16.28,5.5-24.21
										c0.97-3.97,1.79-7.97,2.07-12.02c0.15-1.9,0.37-3.94-0.61-5.58c-0.78-1.49-3.01-1.92-4.29-1.46
										c0.07-0.08,0.12-0.21,0.12-0.31l-1.24-0.07c0.14-0.88,1.29-0.98,2-1.08c5.13-0.36,6.11,4.74,5.66,8.6
										c-0.44,8.32-2.96,16.34-4.97,24.33c-0.98,3.98-1.82,7.97-2.25,12c-1.63,16.23,1.02,33.57-6.08,48.94
										C207.61,236.24,206.57,235.77,206.57,235.77L206.57,235.77z"/>
								</g>
								<g>
									<path class="st7" d="M199.46,179.82c2.09-8.58,4.92-16.99,8.44-25.09c1.66-4.02,3.72-7.99,5.16-12.06
										c1.27-3.64,1.96-8.42-0.84-11.41c-2.09-1.81-5.31,1.05-6.29,3.36c-3.2,5.72-6.1,11.73-9.47,17.38
										c-3.64,6.67-6.1,13.98-7.46,21.46c0,0-1.23-0.2-1.23-0.2c1.29-8.76,4.17-17.4,8.73-25.01c2.78-5.13,5.45-10.54,8.33-15.66
										c2.84-4.7,8.87-5.66,10.66,0.4c1.91,5.67-0.95,11.44-3.22,16.47c-4.66,9.85-8.82,20.15-11.7,30.66
										C200.57,180.11,199.46,179.82,199.46,179.82L199.46,179.82z"/>
								</g>
								<g>
									<path class="st7" d="M195.12,151.36c1.04-3.7,2.19-7.38,3.4-11.02c1.09-3.86,6.9-18.49,1.99-20.29
										c-0.52-0.19-1.19-0.27-1.77-0.29c-1.74,0.2-2.54,2.51-3.42,3.96c-7.79,14.23-13.87,29.4-18.25,45.02l-1.21-0.31
										c3.58-14.99,9.14-29.49,16.35-43.12l1.38-2.54c1.08-1.81,1.84-3.91,4.15-4.78c4.02-0.78,6.73,1.98,6.59,5.92
										c-0.7,9.77-5.43,18.53-8.12,27.79C196.21,151.68,195.12,151.36,195.12,151.36L195.12,151.36z"/>
								</g>
								<g>
									<path class="st7" d="M163.59,162.91c-0.43,11.33-1.22,22.72-3.59,33.84c0,0-1.23-0.2-1.23-0.2l0.9-8.43
										c0.3-2.81,0.61-5.62,0.87-8.43c0.54-4.98,1.18-11.99,1.92-16.89C162.45,162.8,163.59,162.91,163.59,162.91L163.59,162.91z"
										/>
								</g>
								<g>
									<path class="st7" d="M182.9,135.59c0.79-3.84,1.87-7.64,1.86-11.52c-0.02-1.21-0.31-2.45-0.88-2.92l0.18,0.11
										c-1.38-0.63-2.04-0.03-3.17,0.91c-0.96,0.73-2.03,2.44-2.61,3.31c-2.48,4.79-5.1,9.51-7.56,14.31
										c-0.84,1.59-1.66,3.19-2.52,4.76l-1.13-0.53c2.83-6.64,6.12-13.06,9.45-19.47c0.83-1.34,1.75-2.76,3.14-3.9
										c0.59-0.46,1.24-1.08,2.26-1.41c1.01-0.34,2.15-0.09,3.05,0.35c2.41,2.23,1.51,5.75,1.1,8.54c-0.5,2.65-1.3,5.21-2.06,7.72
										L182.9,135.59L182.9,135.59z"/>
								</g>
								<g>
									<path class="st7" d="M180.7,151.25c-0.57,5.03-1.64,10.01-3.28,14.8c0,0-1.22-0.27-1.22-0.27
										c0.4-3.78,1.23-7.49,2.24-11.15c0.34-1.22,0.7-2.43,1.14-3.63L180.7,151.25L180.7,151.25z"/>
								</g>
								<g>
									<path class="st7" d="M160.38,184.36c-1.27-6.12-2.34-13.03-4.96-18.7c-0.89-2.16-1.71-2.98-4.02-2.04
										c0,0-0.54-1.12-0.54-1.12c2.84-1.71,4.97-0.44,6.22,2.36c2.04,3.99,3.11,8.4,3.75,12.79c0.32,2.19,0.54,4.37,0.68,6.56
										L160.38,184.36L160.38,184.36z"/>
								</g>
							</g>
							<g>
								<path class="st7" d="M118.89,301.5c-5.77,6.21-12.42,11.4-18.04,17.74c-1.94,2.03-3.78,4.14-5.68,6.21l-0.97-0.78
									c3.32-4.6,7.07-8.88,11.12-12.85c4.03-3.95,8.58-7.37,12.75-11.1C118.07,300.71,118.89,301.5,118.89,301.5L118.89,301.5z"/>
							</g>
						</g>
					</g>
				</g>
			</g>
		</g>
	</g>
</g>
</svg>
